<?xml version="1.0" encoding="UTF-8" standalone="no"?>
<svg
   xmlns="http://www.w3.org/2000/svg"
   version="1.1"
   height="64"
   width="64">
   <path
      d="m 55.628648,23.007758 c -1.7703,-3.797424 -5.52924,-7.543099 -9.69399,-8.000545 -3.58596,-0.393872 -9.073447,3.690334 -11.215849,5.41569 0.107569,-6.086395 0.301768,-9.128017 3.401343,-15.5809607 0.688824,-1.434052 -0.802794,-2.941529 -2.29185,-2.93419 -0.893435,0.0044 -1.78621,0.554173 -2.206067,1.992128 -1.898592,6.5024367 -2.52232,10.0404987 -1.746147,16.1297647 -2.591173,-1.510731 -7.251276,-3.889269 -10.195242,-3.403409 -5.278276,0.871106 -10.478804,5.204909 -12.388908,10.20196 -2.048216,5.358373 -0.21213,12.01216 2.600357,17.011882 z M 8.371352,49.538316 c 3.160066,5.6176 8.552875,10.90955 14.818217,12.42249 3.095079,0.74739 6.135952,-1.92716 9.314161,-2.11977 2.892451,-0.1753 5.994991,2.05754 8.647528,0.8909 5.528,-2.43133 8.88835,-8.81303 10.81019,-14.53812 1.85512,-5.526349 2.60933,-12.204337 0.14625,-17.487823 z"
      fill="#b34040" />
</svg>
