<?xml version="1.0" encoding="UTF-8" standalone="no"?>
<svg
   xmlns="http://www.w3.org/2000/svg"
   width="325.62323px"
   height="466.66663px"
   version="1.1">
  <path
     transform="scale(0.26458332)"
     d="M 228.81641 0 C 226.78565 1.3977903 224.45179 3.902469 221.81445 7.515625 C 219.20348 11.128781 216.92038 15.798456 214.96875 21.521484 C 213.04349 27.244513 212.08203 33.929838 212.08203 41.578125 C 212.08203 49.569266 213.04349 56.425411 214.96875 62.148438 C 216.92038 67.845093 219.20348 72.500123 221.81445 76.113281 C 224.45179 79.726437 226.78565 82.218427 228.81641 83.589844 L 230.24023 79.160156 C 227.76113 76.628311 225.28183 72.314912 222.80273 66.222656 C 220.32363 60.1304 219.08398 52.074628 219.08398 42.052734 C 219.08398 31.635241 220.32363 23.419386 222.80273 17.40625 C 225.28183 11.366741 227.76113 7.1734045 230.24023 4.8261719 L 228.81641 0 z M 506.88281 0 L 505.45898 4.4707031 C 506.9359 6.0003604 508.54451 8.39962 510.28516 11.669922 C 512.02581 14.940224 513.5163 19.068161 514.75586 24.052734 C 516.02177 29.010934 516.6543 34.825576 516.6543 41.498047 C 516.6543 51.915541 515.40196 60.211438 512.89648 66.382812 C 510.41739 72.554189 507.9381 76.812923 505.45898 79.160156 L 506.88281 83.589844 C 508.91358 82.218427 511.23473 79.726437 513.8457 76.113281 C 516.48303 72.500123 518.76419 67.832401 520.68945 62.109375 C 522.64108 56.386346 523.61719 49.673691 523.61719 41.972656 C 523.61719 34.034263 522.64108 27.218139 520.68945 21.521484 C 518.76419 15.798456 516.48303 11.128781 513.8457 7.515625 C 511.23473 3.902469 508.91358 1.3977903 506.88281 0 z M 451.69727 4.2324219 L 451.69727 64.998047 L 458.66016 64.998047 L 458.66016 4.2324219 L 451.69727 4.2324219 z M 379.14453 6.6074219 C 377.82586 6.6074219 376.83707 7.0144557 376.17773 7.8320312 C 375.5184 8.6496066 375.1875 9.6530406 375.1875 10.839844 C 375.1875 11.9739 375.5184 12.950003 376.17773 13.767578 C 376.83707 14.55878 377.82586 14.953125 379.14453 14.953125 C 380.43683 14.953125 381.42562 14.55878 382.11133 13.767578 C 382.79704 12.950003 383.13867 11.9739 383.13867 10.839844 C 383.13867 9.6530406 382.79704 8.6496066 382.11133 7.8320312 C 381.42562 7.0144557 380.43683 6.6074219 379.14453 6.6074219 z M 18.039062 7.0820312 L 0 14.994141 L 0 21.599609 L 12.105469 16.21875 L 12.105469 64.998047 L 19.107422 64.998047 L 19.107422 7.0820312 L 18.039062 7.0820312 z M 172.64062 7.0820312 L 154.60156 14.994141 L 154.60156 21.599609 L 166.70703 16.21875 L 166.70703 64.998047 L 173.70898 64.998047 L 173.70898 7.0820312 L 172.64062 7.0820312 z M 72.117188 21.402344 C 68.082058 21.402344 64.430458 22.93092 61.160156 25.990234 C 57.889854 29.023176 56.253906 34.312677 56.253906 41.855469 L 56.253906 46.878906 C 56.280277 53.340389 57.783476 58.113529 60.763672 61.199219 C 63.743867 64.258532 67.793716 65.789062 72.910156 65.789062 C 76.602432 65.789062 79.541477 65.129217 81.730469 63.810547 C 83.945834 62.465504 85.634491 60.974993 86.794922 59.339844 L 83.115234 54.949219 C 81.954806 56.373383 80.609736 57.547634 79.080078 58.470703 C 77.576794 59.367399 75.65192 59.814453 73.304688 59.814453 C 70.060759 59.814453 67.568769 58.772953 65.828125 56.689453 C 64.113855 54.579582 63.255859 51.244239 63.255859 46.681641 L 63.255859 45.652344 L 87.111328 45.652344 L 87.111328 41.578125 C 87.111328 35.037521 85.951719 30.0389 83.630859 26.583984 C 81.31 23.129069 77.470987 21.402344 72.117188 21.402344 z M 112.78516 21.402344 C 108.56541 21.402344 105.09732 23.181778 102.38086 26.742188 L 102.18359 22.193359 L 95.578125 22.193359 L 95.578125 64.998047 L 102.58008 64.998047 L 102.58008 33.863281 C 103.4504 31.99077 104.56999 30.474883 105.94141 29.314453 C 107.3392 28.154023 108.8951 27.574219 110.60938 27.574219 C 112.85111 27.574219 114.52708 28.284821 115.63477 29.708984 C 116.74245 31.133148 117.29492 33.519719 117.29492 36.869141 L 117.29492 64.998047 L 124.29688 64.998047 L 124.29688 36.949219 C 124.29687 31.331684 123.25537 27.336497 121.17188 24.962891 C 119.08838 22.589284 116.29282 21.402344 112.78516 21.402344 z M 254.76758 21.402344 C 250.46871 21.402344 247.04064 22.958251 244.48242 26.070312 L 244.2832 22.193359 L 237.7168 22.193359 L 237.7168 64.998047 L 244.67969 64.998047 L 244.67969 32.794922 C 246.13022 29.313633 248.60952 27.574219 252.11719 27.574219 C 256.83803 27.574219 259.26462 30.460553 259.39648 36.236328 L 259.39648 64.998047 L 266.39844 64.998047 L 266.39844 36.236328 C 266.6358 33.809975 267.38642 31.766993 268.65234 30.105469 C 269.94464 28.417571 271.67332 27.574219 273.83594 27.574219 C 276.07768 27.574219 277.84442 28.219422 279.13672 29.511719 C 280.45539 30.777642 281.11328 33.204233 281.11328 36.791016 L 281.11328 64.998047 L 288.11719 64.998047 L 288.11719 36.869141 C 288.11719 31.462593 287.06104 27.534758 284.95117 25.082031 C 282.86767 22.629305 279.87397 21.402344 275.9707 21.402344 C 271.17074 21.402344 267.42641 23.472657 264.73633 27.613281 C 262.81107 23.472657 259.48842 21.402344 254.76758 21.402344 z M 351.49219 21.402344 C 347.40431 21.402344 344.11972 22.576595 341.64062 24.923828 C 339.16152 27.271061 337.92188 30.144706 337.92188 33.546875 C 337.92188 37.028164 339.0688 39.652904 341.36328 41.419922 C 343.39403 42.975953 346.1769 44.504528 349.71094 46.007812 C 353.24497 47.511094 355.63154 48.818097 356.87109 49.925781 C 358.13702 51.033465 358.77148 52.403913 358.77148 54.039062 C 358.77148 57.863206 356.3976 59.775391 351.65039 59.775391 C 349.857 59.775391 348.11563 59.273674 346.42773 58.271484 C 344.73983 57.242921 343.82912 55.212627 343.69727 52.179688 L 336.69531 52.179688 C 336.69531 55.713722 337.97498 58.865559 340.5332 61.634766 C 343.09142 64.403973 346.79769 65.789062 351.65039 65.789062 C 355.89651 65.789063 359.31189 64.680209 361.89648 62.464844 C 364.48108 60.249479 365.77344 57.255772 365.77344 53.484375 C 365.77344 50.029458 364.62456 47.379341 362.33008 45.533203 C 360.03559 43.687065 356.72758 41.90763 352.40234 40.193359 C 349.42215 38.87469 347.42992 37.793168 346.42773 36.949219 C 345.42554 36.078897 344.92383 34.866578 344.92383 33.310547 C 344.92383 31.754516 345.42554 30.382115 346.42773 29.195312 C 347.4563 28.008509 349.14495 27.416016 351.49219 27.416016 C 353.70755 27.416016 355.4089 28.14126 356.5957 29.591797 C 357.78251 31.01596 358.375 32.609935 358.375 34.376953 L 365.33789 34.376953 C 365.33789 30.684677 364.12362 27.600194 361.69727 25.121094 C 359.27091 22.641994 355.87017 21.402344 351.49219 21.402344 z M 426.81445 21.402344 C 422.38374 21.402344 418.86293 22.747413 416.25195 25.4375 C 413.64098 28.127587 412.33398 31.001232 412.33398 34.060547 L 419.33789 34.060547 C 419.33789 32.267156 419.95771 30.711248 421.19727 29.392578 C 422.46318 28.073908 424.21529 27.416016 426.45703 27.416016 C 428.75151 27.416016 430.4675 27.9558 431.60156 29.037109 C 432.762 30.118419 433.3418 31.925185 433.3418 34.457031 L 433.3418 39.044922 L 428.51562 39.044922 C 422.89809 39.044922 418.67742 40.404631 415.85547 43.121094 C 413.03352 45.81118 411.62305 49.211922 411.62305 53.326172 C 411.62305 57.414049 412.74459 60.513173 414.98633 62.623047 C 417.25442 64.732918 420.26083 65.789062 424.00586 65.789062 C 426.11572 65.789062 427.97519 65.247323 429.58398 64.166016 C 431.19275 63.084705 432.48511 61.819678 433.46094 60.369141 C 433.64555 62.426267 433.9618 63.969486 434.41016 64.998047 L 441.64844 64.998047 L 441.64844 64.365234 C 440.77811 62.123496 440.34375 58.984348 440.34375 54.949219 L 440.34375 34.535156 C 440.34375 29.735197 439.07678 26.347146 436.54492 24.369141 C 434.01307 22.391135 430.77046 21.402344 426.81445 21.402344 z M 484.25586 21.402344 C 479.82512 21.402344 476.30433 22.747413 473.69336 25.4375 C 471.08241 28.127587 469.77539 31.001232 469.77539 34.060547 L 476.7793 34.060547 C 476.7793 32.267156 477.39718 30.711248 478.63672 29.392578 C 479.90266 28.073908 481.6567 27.416016 483.89844 27.416016 C 486.19291 27.416016 487.90891 27.9558 489.04297 29.037109 C 490.20338 30.118419 490.7832 31.925185 490.7832 34.457031 L 490.7832 39.044922 L 485.95703 39.044922 C 480.33949 39.044922 476.11885 40.404631 473.29688 43.121094 C 470.47493 45.81118 469.06445 49.211922 469.06445 53.326172 C 469.06445 57.414049 470.18404 60.513173 472.42578 62.623047 C 474.6939 64.732918 477.70226 65.789062 481.44727 65.789062 C 483.55715 65.789062 485.41662 65.247323 487.02539 64.166016 C 488.63418 63.084705 489.92459 61.819678 490.90039 60.369141 C 491.08501 62.426267 491.40321 63.969486 491.85156 64.998047 L 499.08984 64.998047 L 499.08984 64.365234 C 498.21952 62.123496 497.78516 58.984348 497.78516 54.949219 L 497.78516 34.535156 C 497.78516 29.735197 496.51816 26.347146 493.98633 24.369141 C 491.45447 22.391135 488.21187 21.402344 484.25586 21.402344 z M 298.63867 22.193359 L 298.63867 49.806641 C 298.63867 55.503296 299.72019 59.591212 301.88281 62.070312 C 304.04543 64.549411 306.8937 65.789062 310.42773 65.789062 C 314.85846 65.789063 318.26116 64.271221 320.63477 61.238281 L 320.75391 64.998047 L 327.40039 64.998047 L 327.40039 22.193359 L 320.39648 22.193359 L 320.39648 53.841797 C 318.76133 57.665941 315.83498 59.578125 311.61523 59.578125 C 310.13832 59.578125 308.76592 58.943657 307.5 57.677734 C 306.26046 56.385438 305.62794 53.855381 305.60156 50.083984 L 305.60156 22.193359 L 298.63867 22.193359 z M 375.58398 22.193359 L 375.58398 64.998047 L 382.54688 64.998047 L 382.54688 22.193359 L 375.58398 22.193359 z M 72.117188 27.416016 C 75.176501 27.416016 77.221437 28.470206 78.25 30.580078 C 79.304937 32.68995 79.924763 35.392778 80.109375 38.689453 L 80.109375 39.679688 L 63.296875 39.679688 C 63.534237 34.853354 64.455674 31.60879 66.064453 29.947266 C 67.673229 28.259368 69.690834 27.416016 72.117188 27.416016 z M 429.66211 44.189453 L 433.3418 44.189453 L 433.3418 54.435547 C 432.70883 55.701469 431.66733 56.84839 430.2168 57.876953 C 428.76626 58.905514 427.05222 59.419922 425.07422 59.419922 C 422.9116 59.419922 421.28835 58.905514 420.20703 57.876953 C 419.15209 56.822016 418.625 55.015252 418.625 52.457031 C 418.625 49.793318 419.62648 47.748383 421.63086 46.324219 C 423.63524 44.900055 426.31269 44.189453 429.66211 44.189453 z M 487.10352 44.189453 L 490.7832 44.189453 L 490.7832 54.435547 C 490.15026 55.701469 489.10876 56.84839 487.6582 57.876953 C 486.20767 58.905514 484.49168 59.419922 482.51367 59.419922 C 480.35105 59.419922 478.72974 58.905514 477.64844 57.876953 C 476.5935 56.822016 476.06641 55.015252 476.06641 52.457031 C 476.06641 49.793318 477.06788 47.748383 479.07227 46.324219 C 481.07665 44.900055 483.7541 44.189453 487.10352 44.189453 z M 0 113.42188 L 0 118.73047 L 0 218.10547 L 89.195312 218.10547 L 89.195312 113.42188 L 0 113.42188 z M 133.23633 113.42188 L 133.23633 118.73047 L 133.23633 218.10547 L 222.43164 218.10547 L 222.43164 113.42188 L 133.23633 113.42188 z M 263.50391 113.42188 L 263.50391 118.73047 L 263.50391 218.10547 L 352.69922 218.10547 L 352.69922 113.42188 L 263.50391 113.42188 z M 396.48047 113.42188 L 396.48047 118.73047 L 396.48047 218.10547 L 485.67578 218.10547 L 485.67578 113.42188 L 396.48047 113.42188 z M 10.607422 124.03125 L 78.587891 124.03125 L 78.587891 207.49805 L 10.607422 207.49805 L 10.607422 124.03125 z M 143.84375 124.03125 L 211.83008 124.03125 L 211.83008 207.49805 L 143.84375 207.49805 L 143.84375 124.03125 z M 274.10352 124.03125 L 342.0918 124.03125 L 342.0918 207.49805 L 274.10352 207.49805 L 274.10352 124.03125 z M 407.08203 124.03125 L 475.06836 124.03125 L 475.06836 207.49805 L 407.08203 207.49805 L 407.08203 124.03125 z M 441.81836 136.75781 C 435.647 136.75781 430.64837 138.88084 426.82422 143.12695 C 423.00007 147.3467 421.08789 153.61035 421.08789 161.91797 L 421.08789 171.49219 C 421.08789 179.6152 423.01275 185.72072 426.86328 189.80859 C 430.71379 193.89647 435.7251 195.93945 441.89648 195.93945 C 448.09423 195.93945 453.09287 193.89647 456.89062 189.80859 C 460.6884 185.72072 462.58594 179.6152 462.58594 171.49219 L 462.58594 161.91797 C 462.58594 153.61035 460.67376 147.3467 456.84961 143.12695 C 453.02546 138.88084 448.0161 136.75781 441.81836 136.75781 z M 37.466797 137.54883 L 19.46875 195.14844 L 31.810547 195.14844 L 34.896484 183.35938 L 50.759766 183.35938 L 53.845703 195.14844 L 66.228516 195.14844 L 48.109375 137.54883 L 37.466797 137.54883 z M 160.81641 137.54883 L 160.81641 195.14844 L 193.88867 195.14844 L 193.88867 185.49609 L 172.48633 185.49609 L 172.48633 170.22656 L 190.56641 170.22656 L 190.56641 160.84961 L 172.48633 160.84961 L 172.48633 147.24219 L 193.81055 147.24219 L 193.81055 137.54883 L 160.81641 137.54883 z M 288.66406 137.54883 L 288.66406 195.14844 L 300.33398 195.14844 L 300.33398 157.36914 L 317.3457 195.14844 L 328.97656 195.14844 L 328.97656 137.54883 L 317.3457 137.54883 L 317.3457 175.36914 L 300.33398 137.54883 L 288.66406 137.54883 z M 441.81836 146.49023 C 444.79857 146.49023 447.06506 147.67717 448.62109 150.05078 C 450.17713 152.42439 450.95703 156.35418 450.95703 161.83984 L 450.95703 171.76953 C 450.93065 176.88597 450.15074 180.57759 448.62109 182.8457 C 447.09142 185.11382 444.85029 186.24805 441.89648 186.24805 C 438.91628 186.24805 436.63515 185.10113 435.05273 182.80664 C 433.4967 180.48578 432.71875 176.71412 432.71875 171.49219 L 432.71875 161.52344 C 432.74513 156.16964 433.52308 152.33258 435.05273 150.01172 C 436.60877 147.66449 438.86453 146.49023 441.81836 146.49023 z M 42.808594 153.0957 L 48.228516 173.66797 L 37.427734 173.66797 L 42.808594 153.0957 z M 18.949219 342.99609 C 13.569045 342.99609 9.521148 344.73551 6.8046875 348.2168 C 4.1146005 351.69809 2.7695312 355.86604 2.7695312 360.71875 L 9.7714844 360.71875 C 9.7714844 357.29021 10.496728 354.48196 11.947266 352.29297 C 13.397803 350.10397 15.731664 349.00781 18.949219 349.00781 C 21.401945 349.00781 23.301441 350.01125 24.646484 352.01562 C 26.017901 354.02 26.703125 356.43195 26.703125 359.25391 C 26.703125 361.49564 26.228739 363.72409 25.279297 365.93945 C 24.356228 368.12844 22.469421 371.13679 19.621094 374.96094 L 3.6386719 396.125 L 3.6386719 401.38672 L 35.841797 401.38672 L 35.841797 395.37305 L 12.025391 395.37305 L 24.923828 378.48047 C 27.402928 375.26291 29.48593 371.95295 31.173828 368.55078 C 32.861726 365.14861 33.705078 361.76056 33.705078 358.38477 C 33.705078 353.76942 32.400029 350.05047 29.789062 347.22852 C 27.204469 344.40656 23.590937 342.99609 18.949219 342.99609 z M 280.82812 342.99609 C 276.23915 342.99609 272.58755 344.53736 269.87109 347.62305 C 267.15463 350.70874 265.79688 354.45502 265.79688 358.85938 L 272.75781 358.85938 C 272.75781 355.85281 273.48306 353.46624 274.93359 351.69922 C 276.4105 349.90583 278.3754 349.00781 280.82812 349.00781 C 286.02369 349.00781 288.62305 352.38513 288.62305 359.13672 C 288.62305 361.95867 287.88316 364.30522 286.40625 366.17773 C 284.95571 368.05025 282.72727 368.98633 279.7207 368.98633 L 275.21094 368.98633 L 275.21094 375 L 279.36523 375 C 285.98496 375 289.29492 378.49346 289.29492 385.48242 C 289.29492 389.06919 288.51697 391.74664 286.96094 393.51367 C 285.43128 395.28068 283.37366 396.16406 280.78906 396.16406 C 278.1781 396.16406 276.13511 395.25531 274.6582 393.43555 C 273.20767 391.61578 272.48242 389.18917 272.48242 386.15625 L 265.48047 386.15625 C 265.48047 391.27267 266.95633 395.22785 269.91016 398.02344 C 272.86398 400.79265 276.4902 402.17773 280.78906 402.17773 C 285.19342 402.17773 288.87235 400.71456 291.82617 397.78711 C 294.80637 394.85966 296.29688 390.7044 296.29688 385.32422 C 296.29688 382.71325 295.75709 380.11584 294.67578 377.53125 C 293.59447 374.92028 291.43143 373.0081 288.1875 371.79492 C 290.82484 370.42351 292.72434 368.53865 293.88477 366.13867 C 295.0452 363.71232 295.625 361.43117 295.625 359.29492 C 295.625 353.94112 294.2526 349.89127 291.50977 347.14844 C 288.76693 344.37923 285.20611 342.99609 280.82812 342.99609 z M 949.18555 342.99609 C 943.80536 342.99609 939.75746 344.73551 937.04102 348.2168 C 934.35092 351.69809 933.00586 355.86604 933.00586 360.71875 L 940.00781 360.71875 C 940.00781 357.29021 940.73306 354.48196 942.18359 352.29297 C 943.63413 350.10397 945.96798 349.00781 949.18555 349.00781 C 951.63826 349.00781 953.53775 350.01125 954.88281 352.01562 C 956.25423 354.02 956.93945 356.43195 956.93945 359.25391 C 956.93945 361.49564 956.46507 363.72409 955.51562 365.93945 C 954.59256 368.12844 952.70575 371.13679 949.85742 374.96094 L 933.875 396.125 L 933.875 401.38672 L 966.07812 401.38672 L 966.07812 395.37305 L 942.26172 395.37305 L 955.16016 378.48047 C 957.63925 375.26291 959.72227 371.95295 961.41016 368.55078 C 963.09807 365.14861 963.94141 361.76056 963.94141 358.38477 C 963.94141 353.76942 962.63636 350.05047 960.02539 347.22852 C 957.4408 344.40656 953.82726 342.99609 949.18555 342.99609 z M 1103.7871 342.99609 C 1098.407 342.99609 1094.3571 344.73551 1091.6406 348.2168 C 1088.9505 351.69809 1087.6055 355.86604 1087.6055 360.71875 L 1094.6094 360.71875 C 1094.6094 357.29021 1095.3346 354.48196 1096.7852 352.29297 C 1098.2357 350.10397 1100.5696 349.00781 1103.7871 349.00781 C 1106.2398 349.00781 1108.1374 350.01125 1109.4824 352.01562 C 1110.8539 354.02 1111.541 356.43195 1111.541 359.25391 C 1111.541 361.49564 1111.0647 363.72409 1110.1152 365.93945 C 1109.1921 368.12844 1107.3073 371.13679 1104.459 374.96094 L 1088.4766 396.125 L 1088.4766 401.38672 L 1120.6777 401.38672 L 1120.6777 395.37305 L 1096.8633 395.37305 L 1109.7598 378.48047 C 1112.2389 375.26291 1114.3219 371.95295 1116.0098 368.55078 C 1117.6977 365.14861 1118.543 361.76056 1118.543 358.38477 C 1118.543 353.76942 1117.2379 350.05047 1114.627 347.22852 C 1112.0424 344.40656 1108.4288 342.99609 1103.7871 342.99609 z M 178.01953 343.4707 L 159.98047 351.38281 L 159.98047 357.98828 L 172.08594 352.60938 L 172.08594 401.38672 L 179.08789 401.38672 L 179.08789 343.4707 L 178.01953 343.4707 z M 440.61133 343.4707 L 422.57227 351.38281 L 422.57227 357.98828 L 434.67773 352.60938 L 434.67773 401.38672 L 441.67969 401.38672 L 441.67969 343.4707 L 440.61133 343.4707 z M 745.05859 343.4707 L 727.01953 351.38281 L 727.01953 357.98828 L 739.125 352.60938 L 739.125 401.38672 L 746.12695 401.38672 L 746.12695 343.4707 L 745.05859 343.4707 z M 589.82617 343.78711 L 568.42383 383.70312 L 568.42383 388.01562 L 590.2207 388.01562 L 590.2207 401.38672 L 597.22266 401.38672 L 597.22266 388.01562 L 603.63086 388.01562 L 603.63086 382.00195 L 597.22266 382.00195 L 597.22266 343.78711 L 589.82617 343.78711 z M 590.2207 354.50781 L 590.2207 382.00195 L 576.2168 382.00195 L 589.82617 355.33789 L 590.2207 354.50781 z M 77.498047 357.79102 C 73.462915 357.79102 69.811317 359.32155 66.541016 362.38086 C 63.270714 365.4138 61.634766 370.70134 61.634766 378.24414 L 61.634766 383.26758 C 61.661139 389.72906 63.164336 394.50221 66.144531 397.58789 C 69.124724 400.64722 73.172623 402.17773 78.289062 402.17773 C 81.981341 402.17773 84.922337 401.5179 87.111328 400.19922 C 89.326693 398.85419 91.01535 397.36367 92.175781 395.72852 L 88.496094 391.33789 C 87.335663 392.76207 85.990593 393.93631 84.460938 394.85938 C 82.957653 395.75608 81.03278 396.20313 78.685547 396.20312 C 75.441619 396.20312 72.949628 395.16163 71.208984 393.07812 C 69.494712 390.96824 68.636719 387.63291 68.636719 383.07031 L 68.636719 382.04102 L 92.492188 382.04102 L 92.492188 377.9668 C 92.492188 371.42619 91.330625 366.42757 89.009766 362.97266 C 86.688906 359.51774 82.851846 357.79102 77.498047 357.79102 z M 118.16602 357.79102 C 113.94627 357.79102 110.47818 359.57045 107.76172 363.13086 L 107.56445 358.58203 L 100.95703 358.58203 L 100.95703 401.38672 L 107.95898 401.38672 L 107.95898 370.25195 C 108.82931 368.37944 109.95085 366.86356 111.32227 365.70312 C 112.72006 364.5427 114.27596 363.96289 115.99023 363.96289 C 118.23198 363.96289 119.90599 364.67349 121.01367 366.09766 C 122.12136 367.52182 122.67578 369.91034 122.67578 373.25977 L 122.67578 401.38672 L 129.67773 401.38672 L 129.67773 373.33789 C 129.67773 367.72036 128.63623 363.72517 126.55273 361.35156 C 124.46924 358.97796 121.67368 357.79102 118.16602 357.79102 z M 340.08984 357.79102 C 336.05471 357.79102 332.40311 359.32155 329.13281 362.38086 C 325.86251 365.4138 324.22656 370.70134 324.22656 378.24414 L 324.22656 383.26758 C 324.25294 389.72906 325.75614 394.50221 328.73633 397.58789 C 331.71652 400.64722 335.76442 402.17773 340.88086 402.17773 C 344.57314 402.17773 347.51413 401.5179 349.70312 400.19922 C 351.91849 398.85419 353.60715 397.36367 354.76758 395.72852 L 351.08789 391.33789 C 349.92746 392.76207 348.58239 393.93631 347.05273 394.85938 C 345.54945 395.75608 343.62458 396.20313 341.27734 396.20312 C 338.03342 396.20312 335.54143 395.16163 333.80078 393.07812 C 332.08651 390.96824 331.22852 387.63291 331.22852 383.07031 L 331.22852 382.04102 L 355.08398 382.04102 L 355.08398 377.9668 C 355.08398 371.42619 353.92242 366.42757 351.60156 362.97266 C 349.2807 359.51774 345.44365 357.79102 340.08984 357.79102 z M 380.75781 357.79102 C 376.53806 357.79102 373.06998 359.57045 370.35352 363.13086 L 370.15625 358.58203 L 363.54883 358.58203 L 363.54883 401.38672 L 370.55078 401.38672 L 370.55078 370.25195 C 371.4211 368.37944 372.54265 366.86356 373.91406 365.70312 C 375.31185 364.5427 376.86775 363.96289 378.58203 363.96289 C 380.82377 363.96289 382.49779 364.67349 383.60547 366.09766 C 384.71315 367.52182 385.26758 369.91034 385.26758 373.25977 L 385.26758 401.38672 L 392.26953 401.38672 L 392.26953 373.33789 C 392.26953 367.72036 391.22803 363.72517 389.14453 361.35156 C 387.06103 358.97796 384.26547 357.79102 380.75781 357.79102 z M 644.53711 357.79102 C 640.50196 357.79102 636.84842 359.32155 633.57812 362.38086 C 630.30783 365.4138 628.67383 370.70134 628.67383 378.24414 L 628.67383 383.26758 C 628.70021 389.72906 630.20341 394.50221 633.18359 397.58789 C 636.1638 400.64722 640.2117 402.17773 645.32812 402.17773 C 649.02042 402.17773 651.96141 401.5179 654.15039 400.19922 C 656.36577 398.85419 658.05247 397.36367 659.21289 395.72852 L 655.53516 391.33789 C 654.37472 392.76207 653.02965 393.93631 651.5 394.85938 C 649.99671 395.75608 648.07185 396.20313 645.72461 396.20312 C 642.48069 396.20312 639.98674 395.16163 638.24609 393.07812 C 636.53183 390.96824 635.67578 387.63291 635.67578 383.07031 L 635.67578 382.04102 L 659.5293 382.04102 L 659.5293 377.9668 C 659.5293 371.42619 658.36968 366.42757 656.04883 362.97266 C 653.72797 359.51774 649.89091 357.79102 644.53711 357.79102 z M 685.20508 357.79102 C 680.98534 357.79102 677.51723 359.57045 674.80078 363.13086 L 674.60352 358.58203 L 667.99609 358.58203 L 667.99609 401.38672 L 674.99805 401.38672 L 674.99805 370.25195 C 675.86837 368.37944 676.98991 366.86356 678.36133 365.70312 C 679.75912 364.5427 681.31503 363.96289 683.0293 363.96289 C 685.27104 363.96289 686.94506 364.67349 688.05273 366.09766 C 689.16041 367.52182 689.71484 369.91034 689.71484 373.25977 L 689.71484 401.38672 L 696.7168 401.38672 L 696.7168 373.33789 C 696.7168 367.72036 695.67527 363.72517 693.5918 361.35156 C 691.50829 358.97796 688.71276 357.79102 685.20508 357.79102 z M 1007.7344 357.79102 C 1003.6993 357.79102 1000.0476 359.32155 996.77734 362.38086 C 993.50704 365.4138 991.87109 370.70134 991.87109 378.24414 L 991.87109 383.26758 C 991.89747 389.72906 993.40068 394.50221 996.38086 397.58789 C 999.36107 400.64722 1003.409 402.17773 1008.5254 402.17773 C 1012.2177 402.17773 1015.1587 401.5179 1017.3477 400.19922 C 1019.563 398.85419 1021.2517 397.36367 1022.4121 395.72852 L 1018.7324 391.33789 C 1017.572 392.76207 1016.2269 393.93631 1014.6973 394.85938 C 1013.194 395.75608 1011.2691 396.20313 1008.9219 396.20312 C 1005.678 396.20312 1003.186 395.16163 1001.4453 393.07812 C 999.73104 390.96824 998.87305 387.63291 998.87305 383.07031 L 998.87305 382.04102 L 1022.7285 382.04102 L 1022.7285 377.9668 C 1022.7285 371.42619 1021.567 366.42757 1019.2461 362.97266 C 1016.9252 359.51774 1013.0882 357.79102 1007.7344 357.79102 z M 1048.4023 357.79102 C 1044.1826 357.79102 1040.7145 359.57045 1037.998 363.13086 L 1037.8008 358.58203 L 1031.1934 358.58203 L 1031.1934 401.38672 L 1038.1953 401.38672 L 1038.1953 370.25195 C 1039.0656 368.37944 1040.1872 366.86356 1041.5586 365.70312 C 1042.9564 364.5427 1044.5123 363.96289 1046.2266 363.96289 C 1048.4683 363.96289 1050.1423 364.67349 1051.25 366.09766 C 1052.3577 367.52182 1052.9121 369.91034 1052.9121 373.25977 L 1052.9121 401.38672 L 1059.9141 401.38672 L 1059.9141 373.33789 C 1059.9141 367.72036 1058.8726 363.72517 1056.7891 361.35156 C 1054.7056 358.97796 1051.91 357.79102 1048.4023 357.79102 z M 77.498047 363.80469 C 80.55736 363.80469 82.602296 364.85888 83.630859 366.96875 C 84.685791 369.07862 85.305617 371.78145 85.490234 375.07812 L 85.490234 376.06836 L 68.675781 376.06836 C 68.913143 371.24203 69.836536 367.99746 71.445312 366.33594 C 73.054091 364.64804 75.071693 363.80469 77.498047 363.80469 z M 340.08984 363.80469 C 343.14916 363.80469 345.19409 364.85888 346.22266 366.96875 C 347.27759 369.07862 347.89741 371.78145 348.08203 375.07812 L 348.08203 376.06836 L 331.26758 376.06836 C 331.50494 371.24203 332.42833 367.99746 334.03711 366.33594 C 335.64589 364.64804 337.66349 363.80469 340.08984 363.80469 z M 644.53711 363.80469 C 647.59641 363.80469 649.63941 364.85888 650.66797 366.96875 C 651.72283 369.07862 652.34265 371.78145 652.52734 375.07812 L 652.52734 376.06836 L 635.71484 376.06836 C 635.9522 371.24203 636.87561 367.99746 638.48438 366.33594 C 640.09317 364.64804 642.11075 363.80469 644.53711 363.80469 z M 1007.7344 363.80469 C 1010.7937 363.80469 1012.8386 364.85888 1013.8672 366.96875 C 1014.9221 369.07862 1015.5419 371.78145 1015.7266 375.07812 L 1015.7266 376.06836 L 998.91211 376.06836 C 999.14946 371.24203 1000.0729 367.99746 1001.6816 366.33594 C 1003.2904 364.64804 1005.308 363.80469 1007.7344 363.80469 z M 0 450.22852 L 0 455.5293 L 0 558.15234 L 147.32031 558.15234 L 147.32031 450.22852 L 0 450.22852 z M 262.58789 450.22852 L 262.58789 455.5293 L 262.58789 558.15234 L 483.53516 558.15234 L 483.53516 450.22852 L 262.58789 450.22852 z M 567.03906 450.22852 L 567.03906 455.5293 L 567.03906 558.15234 L 846.73242 558.15234 L 846.73242 450.22852 L 567.03906 450.22852 z M 930.23633 450.22852 L 930.23633 455.5293 L 930.23633 622.81836 L 1076.1621 622.81836 L 1076.1621 450.22852 L 930.23633 450.22852 z M 10.607422 460.83008 L 136.7207 460.83008 L 136.7207 547.55078 L 10.607422 547.55078 L 10.607422 460.83008 z M 273.19727 460.83008 L 472.92773 460.83008 L 472.92773 547.55078 L 273.19727 547.55078 L 273.19727 460.83008 z M 577.64844 460.83008 L 836.125 460.83008 L 836.125 547.55078 L 577.64844 547.55078 L 577.64844 460.83008 z M 940.84375 460.83008 L 1065.5527 460.83008 L 1065.5527 612.20898 L 940.84375 612.20898 L 940.84375 460.83008 z M 310.56641 473.56055 C 304.39503 473.56055 299.39836 475.68356 295.57422 479.92969 C 291.75007 484.14943 289.83789 490.41307 289.83789 498.7207 L 289.83789 508.29492 C 289.83789 516.41793 291.76276 522.52347 295.61328 526.61133 C 299.4638 530.69921 304.47511 532.74414 310.64648 532.74414 C 316.84423 532.74414 321.8409 530.69921 325.63867 526.61133 C 329.43644 522.52347 331.33594 516.41793 331.33594 508.29492 L 331.33594 498.7207 C 331.33594 490.41307 329.42375 484.14943 325.59961 479.92969 C 321.77547 475.68356 316.76415 473.56055 310.56641 473.56055 z M 27.691406 474.35156 L 27.691406 531.95117 L 60.763672 531.95117 L 60.763672 522.29883 L 39.361328 522.29883 L 39.361328 507.0293 L 57.439453 507.0293 L 57.439453 497.6543 L 39.361328 497.6543 L 39.361328 484.04492 L 60.683594 484.04492 L 60.683594 474.35156 L 27.691406 474.35156 z M 80.599609 474.35156 L 80.599609 531.95117 L 92.269531 531.95117 L 92.269531 494.17188 L 109.2793 531.95117 L 120.91016 531.95117 L 120.91016 474.35156 L 109.2793 474.35156 L 109.2793 512.17188 L 92.269531 474.35156 L 80.599609 474.35156 z M 352.87305 474.35156 L 352.87305 531.95117 L 364.54297 531.95117 L 364.54297 494.17188 L 381.55469 531.95117 L 393.18555 531.95117 L 393.18555 474.35156 L 381.55469 474.35156 L 381.55469 512.17188 L 364.54297 474.35156 L 352.87305 474.35156 z M 430.7832 474.35156 L 412.7832 531.95117 L 425.12695 531.95117 L 428.21289 520.16211 L 444.07617 520.16211 L 447.16211 531.95117 L 459.54297 531.95117 L 441.42578 474.35156 L 430.7832 474.35156 z M 599.03906 474.35156 L 599.03906 531.95117 L 610.70898 531.95117 L 610.70898 494.17188 L 627.71875 531.95117 L 639.34961 531.95117 L 639.34961 474.35156 L 627.71875 474.35156 L 627.71875 512.17188 L 610.70898 474.35156 L 599.03906 474.35156 z M 661.91602 474.35156 L 661.91602 531.95117 L 694.98828 531.95117 L 694.98828 522.29883 L 673.58594 522.29883 L 673.58594 507.0293 L 691.66602 507.0293 L 691.66602 497.6543 L 673.58594 497.6543 L 673.58594 484.04492 L 694.9082 484.04492 L 694.9082 474.35156 L 661.91602 474.35156 z M 714.82422 474.35156 L 714.82422 531.95117 L 726.49414 531.95117 L 726.49414 494.17188 L 743.50586 531.95117 L 755.13672 531.95117 L 755.13672 474.35156 L 743.50586 474.35156 L 743.50586 512.17188 L 726.49414 474.35156 L 714.82422 474.35156 z M 792.73438 474.35156 L 774.73438 531.95117 L 787.07812 531.95117 L 790.16406 520.16211 L 806.02734 520.16211 L 809.11328 531.95117 L 821.49414 531.95117 L 803.37695 474.35156 L 792.73438 474.35156 z M 957.81445 474.35156 L 957.81445 531.95117 L 990.88672 531.95117 L 990.88672 522.29883 L 969.48438 522.29883 L 969.48438 507.0293 L 987.5625 507.0293 L 987.5625 497.6543 L 969.48438 497.6543 L 969.48438 484.04492 L 990.80664 484.04492 L 990.80664 474.35156 L 957.81445 474.35156 z M 1007.3887 474.75391 L 1007.3887 532.35156 L 1019.0586 532.35156 L 1019.0586 494.57227 L 1036.0684 532.35156 L 1047.6992 532.35156 L 1047.6992 474.75391 L 1036.0684 474.75391 L 1036.0684 512.57227 L 1019.0586 474.75391 L 1007.3887 474.75391 z M 310.56641 483.29297 C 313.5466 483.29297 315.81506 484.4799 317.37109 486.85352 C 318.92713 489.22711 319.70508 493.15692 319.70508 498.64258 L 319.70508 508.57227 C 319.6787 513.68869 318.90075 517.38032 317.37109 519.64844 C 315.84144 521.91656 313.60031 523.05078 310.64648 523.05078 C 307.66629 523.05078 305.38514 521.90386 303.80273 519.60938 C 302.24671 517.28852 301.46875 513.51684 301.46875 508.29492 L 301.46875 498.32617 C 301.49512 492.97237 302.27308 489.13531 303.80273 486.81445 C 305.35877 484.46722 307.61258 483.29297 310.56641 483.29297 z M 436.125 489.90039 L 441.54297 510.4707 L 430.74414 510.4707 L 436.125 489.90039 z M 798.07422 489.90039 L 803.49414 510.4707 L 792.69531 510.4707 L 798.07422 489.90039 z M 952.82031 539.55469 L 952.82031 597.1543 L 964.49023 597.1543 L 964.49023 559.375 L 981.5 597.1543 L 993.13086 597.1543 L 993.13086 539.55469 L 981.5 539.55469 L 981.5 577.375 L 964.49023 539.55469 L 952.82031 539.55469 z M 1022.1699 539.55469 L 1022.1699 597.1543 L 1033.8008 597.1543 L 1033.8008 539.55469 L 1022.1699 539.55469 z M 18.236328 697.95898 C 13.647356 697.95898 9.9957573 699.50026 7.2792969 702.58594 C 4.5628365 705.67162 3.2050781 709.41791 3.2050781 713.82227 L 10.166016 713.82227 C 10.166016 710.8157 10.89126 708.42914 12.341797 706.66211 C 13.818707 704.86872 15.783602 703.9707 18.236328 703.9707 C 23.431888 703.9707 26.03125 707.34801 26.03125 714.09961 C 26.03125 716.92156 25.291364 719.26812 23.814453 721.14062 C 22.363916 723.01315 20.135474 723.94922 17.128906 723.94922 L 12.619141 723.94922 L 12.619141 729.96289 L 16.773438 729.96289 C 23.393161 729.96289 26.703125 733.45636 26.703125 740.44531 C 26.703125 744.03211 25.925171 746.70956 24.369141 748.47656 C 22.839483 750.24359 20.781859 751.12695 18.197266 751.12695 C 15.586299 751.12695 13.543317 750.21625 12.066406 748.39648 C 10.615869 746.57672 9.890625 744.15209 9.890625 741.11914 L 2.8886719 741.11914 C 2.8886719 746.23559 4.3645383 750.19076 7.3183594 752.98633 C 10.27218 755.75554 13.898401 757.14063 18.197266 757.14062 C 22.601624 757.14062 26.280554 755.67549 29.234375 752.74805 C 32.214569 749.8206 33.705078 745.66727 33.705078 740.28711 C 33.705078 737.67614 33.165294 735.07873 32.083984 732.49414 C 31.002675 729.88317 28.839631 727.97099 25.595703 726.75781 C 28.233043 725.3864 30.132539 723.50154 31.292969 721.10156 C 32.453398 718.67521 33.033203 716.39405 33.033203 714.25781 C 33.033203 708.90401 31.660803 704.85418 28.917969 702.11133 C 26.175135 699.34214 22.614313 697.95898 18.236328 697.95898 z M 172.83789 697.95898 C 168.24892 697.95898 164.59732 699.50026 161.88086 702.58594 C 159.1644 705.67162 157.80469 709.41791 157.80469 713.82227 L 164.76758 713.82227 C 164.76758 710.8157 165.49282 708.42914 166.94336 706.66211 C 168.42027 704.86872 170.38517 703.9707 172.83789 703.9707 C 178.03345 703.9707 180.63086 707.34801 180.63086 714.09961 C 180.63086 716.92156 179.89293 719.26812 178.41602 721.14062 C 176.96548 723.01315 174.73704 723.94922 171.73047 723.94922 L 167.2207 723.94922 L 167.2207 729.96289 L 171.375 729.96289 C 177.99472 729.96289 181.30469 733.45636 181.30469 740.44531 C 181.30469 744.03211 180.52673 746.70956 178.9707 748.47656 C 177.44105 750.24359 175.38342 751.12695 172.79883 751.12695 C 170.18786 751.12695 168.14293 750.21625 166.66602 748.39648 C 165.21548 746.57672 164.49023 744.15209 164.49023 741.11914 L 157.48828 741.11914 C 157.48828 746.23559 158.9661 750.19076 161.91992 752.98633 C 164.87374 755.75554 168.49997 757.14063 172.79883 757.14062 C 177.20319 757.14062 180.88212 755.67549 183.83594 752.74805 C 186.81613 749.8206 188.30664 745.66727 188.30664 740.28711 C 188.30664 737.67614 187.7649 735.07873 186.68359 732.49414 C 185.60228 729.88317 183.43924 727.97099 180.19531 726.75781 C 182.83265 725.3864 184.73215 723.50154 185.89258 721.10156 C 187.05301 718.67521 187.63281 716.39405 187.63281 714.25781 C 187.63281 708.90401 186.26236 704.85418 183.51953 702.11133 C 180.7767 699.34214 177.21588 697.95898 172.83789 697.95898 z M 77.498047 712.75391 C 73.462915 712.75391 69.811317 714.28247 66.541016 717.3418 C 63.270714 720.37474 61.634766 725.66425 61.634766 733.20703 L 61.634766 738.23047 C 61.661139 744.69197 63.164336 749.4651 66.144531 752.55078 C 69.124724 755.61008 73.172623 757.14063 78.289062 757.14062 C 81.981341 757.14063 84.922337 756.48076 87.111328 755.16211 C 89.326693 753.81705 91.01535 752.32656 92.175781 750.69141 L 88.496094 746.30078 C 87.335663 747.72496 85.990593 748.8992 84.460938 749.82227 C 82.957653 750.71895 81.03278 751.16602 78.685547 751.16602 C 75.441619 751.16602 72.949628 750.12449 71.208984 748.04102 C 69.494712 745.93113 68.636719 742.5958 68.636719 738.0332 L 68.636719 737.00391 L 92.492188 737.00391 L 92.492188 732.92969 C 92.492188 726.38909 91.330625 721.39046 89.009766 717.93555 C 86.688906 714.48063 82.851846 712.75391 77.498047 712.75391 z M 118.16602 712.75391 C 113.94627 712.75391 110.47818 714.53333 107.76172 718.09375 L 107.56445 713.54492 L 100.95703 713.54492 L 100.95703 756.34961 L 107.95898 756.34961 L 107.95898 725.21484 C 108.82931 723.34234 109.95085 721.82646 111.32227 720.66602 C 112.72006 719.5056 114.27596 718.92578 115.99023 718.92578 C 118.23198 718.92578 119.90599 719.6364 121.01367 721.06055 C 122.12136 722.48472 122.67578 724.87129 122.67578 728.2207 L 122.67578 756.34961 L 129.67773 756.34961 L 129.67773 728.30078 C 129.67773 722.68324 128.63623 718.68805 126.55273 716.31445 C 124.46924 713.94083 121.67368 712.75391 118.16602 712.75391 z M 77.498047 718.76758 C 80.55736 718.76758 82.602296 719.82178 83.630859 721.93164 C 84.685791 724.04152 85.305617 726.74434 85.490234 730.04102 L 85.490234 731.03125 L 68.675781 731.03125 C 68.913143 726.20492 69.836536 722.96036 71.445312 721.29883 C 73.054091 719.61094 75.071693 718.76758 77.498047 718.76758 z M 0 803.50391 L 0 808.8125 L 0 1039.3633 L 198.7793 1039.3633 L 198.7793 803.50391 L 0 803.50391 z M 257.98242 803.50391 L 257.98242 808.8125 L 257.98242 1039.3633 L 456.75391 1039.3633 L 456.75391 803.50391 L 257.98242 803.50391 z M 515.96484 803.50391 L 515.96484 808.8125 L 515.96484 1039.3633 L 714.73633 1039.3633 L 714.73633 803.50391 L 515.96484 803.50391 z M 773.94727 803.50391 L 773.94727 808.8125 L 773.94727 1039.3633 L 972.71875 1039.3633 L 972.71875 803.50391 L 773.94727 803.50391 z M 1031.9297 803.50391 L 1031.9297 808.8125 L 1031.9297 1039.3633 L 1230.7012 1039.3633 L 1230.7012 803.50391 L 1031.9297 803.50391 z M 10.607422 814.11133 L 188.17188 814.11133 L 188.17188 1028.7559 L 10.607422 1028.7559 L 10.607422 814.11133 z M 268.58984 814.11133 L 446.1543 814.11133 L 446.1543 1028.7559 L 268.58984 1028.7559 L 268.58984 814.11133 z M 526.56445 814.11133 L 704.13672 814.11133 L 704.13672 1028.7559 L 526.56445 1028.7559 L 526.56445 814.11133 z M 784.54688 814.11133 L 962.11914 814.11133 L 962.11914 1028.7559 L 784.54688 1028.7559 L 784.54688 814.11133 z M 1042.5293 814.11133 L 1220.0938 814.11133 L 1220.0938 1028.7559 L 1042.5293 1028.7559 L 1042.5293 814.11133 z M 669.25 827.24023 C 663.07864 827.24023 658.08196 829.36325 654.25781 833.60938 C 650.43366 837.8291 648.52148 844.09279 648.52148 852.40039 L 648.52148 861.97461 C 648.52148 870.0976 650.44634 876.20313 654.29688 880.29102 C 658.14736 884.3789 663.15871 886.42188 669.33008 886.42188 C 675.52785 886.42187 680.5245 884.3789 684.32227 880.29102 C 688.12004 876.20313 690.01953 870.0976 690.01953 861.97461 L 690.01953 852.40039 C 690.01953 844.09279 688.10735 837.8291 684.2832 833.60938 C 680.45905 829.36325 675.44775 827.24023 669.25 827.24023 z M 927.23242 827.24023 C 921.06103 827.24023 916.06243 829.36325 912.23828 833.60938 C 908.41416 837.8291 906.50195 844.09279 906.50195 852.40039 L 906.50195 861.97461 C 906.50195 870.0976 908.42879 876.20313 912.2793 880.29102 C 916.1298 884.3789 921.13916 886.42188 927.31055 886.42188 C 933.50829 886.42187 938.50692 884.3789 942.30469 880.29102 C 946.10246 876.20313 948.00195 870.0976 948.00195 861.97461 L 948.00195 852.40039 C 948.00195 844.09279 946.08978 837.8291 942.26562 833.60938 C 938.44152 829.36325 933.43017 827.24023 927.23242 827.24023 z M 1185.2129 827.24023 C 1179.0415 827.24023 1174.0448 829.36325 1170.2207 833.60938 C 1166.3966 837.8291 1164.4844 844.09279 1164.4844 852.40039 L 1164.4844 861.97461 C 1164.4844 870.0976 1166.4093 876.20313 1170.2598 880.29102 C 1174.1103 884.3789 1179.1216 886.42188 1185.293 886.42188 C 1191.4907 886.42187 1196.4874 884.3789 1200.2852 880.29102 C 1204.0829 876.20313 1205.9824 870.0976 1205.9824 861.97461 L 1205.9824 852.40039 C 1205.9824 844.09279 1204.0702 837.8291 1200.2461 833.60938 C 1196.4219 829.36325 1191.4106 827.24023 1185.2129 827.24023 z M 37.466797 827.63086 L 19.46875 885.23047 L 31.810547 885.23047 L 34.896484 873.44141 L 50.759766 873.44141 L 53.845703 885.23047 L 66.228516 885.23047 L 48.109375 827.63086 L 37.466797 827.63086 z M 295.44922 827.63086 L 277.44922 885.23047 L 289.79297 885.23047 L 292.87695 873.44141 L 308.74219 873.44141 L 311.82617 885.23047 L 324.20898 885.23047 L 306.08984 827.63086 L 295.44922 827.63086 z M 552.91602 827.63086 L 552.91602 885.23047 L 564.54688 885.23047 L 564.54688 827.63086 L 552.91602 827.63086 z M 810.89844 827.63086 L 810.89844 885.23047 L 822.5293 885.23047 L 822.5293 827.63086 L 810.89844 827.63086 z M 1068.8789 827.63086 L 1068.8789 885.23047 L 1080.5098 885.23047 L 1080.5098 827.63086 L 1068.8789 827.63086 z M 82.611328 828.03125 L 82.611328 885.63086 L 114.6543 885.63086 L 114.6543 875.97852 L 94.28125 875.97852 L 94.28125 828.03125 L 82.611328 828.03125 z M 147.98633 828.03125 L 129.98633 885.63086 L 142.33008 885.63086 L 145.41602 873.8418 L 161.2793 873.8418 L 164.36523 885.63086 L 176.74609 885.63086 L 158.62891 828.03125 L 147.98633 828.03125 z M 340.5918 828.03125 L 340.5918 885.63086 L 372.63672 885.63086 L 372.63672 875.97852 L 352.26367 875.97852 L 352.26367 828.03125 L 340.5918 828.03125 z M 405.96875 828.03125 L 387.96875 885.63086 L 400.31055 885.63086 L 403.39648 873.8418 L 419.25977 873.8418 L 422.3457 885.63086 L 434.72852 885.63086 L 416.60938 828.03125 L 405.96875 828.03125 z M 617.04883 828.03125 L 617.04883 868.14648 C 616.99607 873.89588 615.32205 876.76953 612.02539 876.76953 C 610.54848 876.76953 609.33421 876.17703 608.38477 874.99023 C 607.4617 873.80344 607 871.66579 607 868.58008 L 595.29102 868.58008 C 595.29102 874.69873 596.87231 879.21026 600.03711 882.11133 C 603.20193 884.98604 607.19906 886.42188 612.02539 886.42188 C 616.74622 886.42188 620.7014 884.77324 623.89258 881.47656 C 627.08376 878.1535 628.67969 873.61853 628.67969 867.86914 L 628.67969 828.03125 L 617.04883 828.03125 z M 856.55469 828.03125 L 856.55469 885.63086 L 888.59961 885.63086 L 888.59961 875.97852 L 868.22656 875.97852 L 868.22656 828.03125 L 856.55469 828.03125 z M 1114.5371 828.03125 L 1114.5371 885.63086 L 1146.5801 885.63086 L 1146.5801 875.97852 L 1126.207 875.97852 L 1126.207 828.03125 L 1114.5371 828.03125 z M 669.25 836.97266 C 672.23021 836.97266 674.49866 838.15961 676.05469 840.5332 C 677.61069 842.90682 678.38867 846.83661 678.38867 852.32227 L 678.38867 862.25195 C 678.36232 867.3684 677.58434 871.06003 676.05469 873.32812 C 674.52501 875.59624 672.28391 876.73047 669.33008 876.73047 C 666.3499 876.73047 664.06874 875.58356 662.48633 873.28906 C 660.9303 870.96821 660.15234 867.19653 660.15234 861.97461 L 660.15234 852.00586 C 660.17872 846.65206 660.95668 842.81307 662.48633 840.49219 C 664.04236 838.14497 666.29617 836.97266 669.25 836.97266 z M 927.23242 836.97266 C 930.2126 836.97266 932.48108 838.15961 934.03711 840.5332 C 935.59314 842.90682 936.37109 846.83661 936.37109 852.32227 L 936.37109 862.25195 C 936.34471 867.3684 935.56676 871.06003 934.03711 873.32812 C 932.50746 875.59624 930.26437 876.73047 927.31055 876.73047 C 924.33034 876.73047 922.04918 875.58356 920.4668 873.28906 C 918.91077 870.96821 918.13281 867.19653 918.13281 861.97461 L 918.13281 852.00586 C 918.15917 846.65206 918.93712 842.81307 920.4668 840.49219 C 922.02283 838.14497 924.27859 836.97266 927.23242 836.97266 z M 1185.2129 836.97266 C 1188.1931 836.97266 1190.4615 838.15961 1192.0176 840.5332 C 1193.5736 842.90682 1194.3516 846.83661 1194.3516 852.32227 L 1194.3516 862.25195 C 1194.3252 867.3684 1193.5473 871.06003 1192.0176 873.32812 C 1190.4879 875.59624 1188.2468 876.73047 1185.293 876.73047 C 1182.3128 876.73047 1180.0316 875.58356 1178.4492 873.28906 C 1176.8932 870.96821 1176.1152 867.19653 1176.1152 861.97461 L 1176.1152 852.00586 C 1176.1416 846.65206 1176.9196 842.81307 1178.4492 840.49219 C 1180.0053 838.14497 1182.2591 836.97266 1185.2129 836.97266 z M 42.808594 843.17773 L 48.228516 863.75 L 37.427734 863.75 L 42.808594 843.17773 z M 300.78906 843.17773 L 306.20898 863.75 L 295.41016 863.75 L 300.78906 843.17773 z M 153.32617 843.57812 L 158.74609 864.15039 L 147.94727 864.15039 L 153.32617 843.57812 z M 411.30859 843.57812 L 416.72852 864.15039 L 405.92773 864.15039 L 411.30859 843.57812 z M 355.73047 892.04297 C 349.55909 892.04297 344.56243 894.16599 340.73828 898.41211 C 336.91414 902.63185 335.00195 908.89552 335.00195 917.20312 L 335.00195 926.77539 C 335.00195 934.8984 336.92683 941.00394 340.77734 945.0918 C 344.62786 949.17968 349.63917 951.22461 355.81055 951.22461 C 362.00829 951.22461 367.00496 949.17968 370.80273 945.0918 C 374.6005 941.00394 376.5 934.8984 376.5 926.77539 L 376.5 917.20312 C 376.5 908.89552 374.58782 902.63185 370.76367 898.41211 C 366.93953 894.16599 361.92822 892.04297 355.73047 892.04297 z M 1129.6758 892.04297 C 1123.5044 892.04297 1118.5058 894.16599 1114.6816 898.41211 C 1110.8575 902.63185 1108.9453 908.89552 1108.9453 917.20312 L 1108.9453 926.77539 C 1108.9453 934.8984 1110.8721 941.00394 1114.7227 945.0918 C 1118.5732 949.17968 1123.5845 951.22461 1129.7559 951.22461 C 1135.9536 951.22461 1140.9503 949.17968 1144.748 945.0918 C 1148.5458 941.00394 1150.4453 934.8984 1150.4453 926.77539 L 1150.4453 917.20312 C 1150.4453 908.89552 1148.5331 902.63185 1144.709 898.41211 C 1140.8848 894.16599 1135.8735 892.04297 1129.6758 892.04297 z M 28.042969 892.83398 L 28.042969 950.43359 L 60.085938 950.43359 L 60.085938 940.7793 L 39.712891 940.7793 L 39.712891 892.83398 L 28.042969 892.83398 z M 82.558594 892.83398 L 82.558594 950.43359 L 115.63086 950.43359 L 115.63086 940.7793 L 94.228516 940.7793 L 94.228516 925.50977 L 112.30859 925.50977 L 112.30859 916.13477 L 94.228516 916.13477 L 94.228516 902.52539 L 115.55078 902.52539 L 115.55078 892.83398 L 82.558594 892.83398 z M 133.11133 892.83398 L 133.11133 950.43359 L 144.78125 950.43359 L 144.78125 912.65234 L 161.79297 950.43359 L 173.42383 950.43359 L 173.42383 892.83398 L 161.79297 892.83398 L 161.79297 930.65234 L 144.78125 892.83398 L 133.11133 892.83398 z M 286.02344 892.83398 L 286.02344 950.43359 L 318.06836 950.43359 L 318.06836 940.7793 L 297.69336 940.7793 L 297.69336 892.83398 L 286.02344 892.83398 z M 391.09375 892.83398 L 391.09375 950.43359 L 402.76367 950.43359 L 402.76367 912.65234 L 419.77539 950.43359 L 431.4043 950.43359 L 431.4043 892.83398 L 419.77539 892.83398 L 419.77539 930.65234 L 402.76367 892.83398 L 391.09375 892.83398 z M 562.48047 892.83398 L 562.48047 932.94727 C 562.42771 938.69666 560.75176 941.57227 557.45508 941.57227 C 555.97816 941.57227 554.76582 940.97781 553.81641 939.79102 C 552.89332 938.60422 552.43164 936.46849 552.43164 933.38281 L 540.72266 933.38281 C 540.72266 939.50144 542.30395 944.01104 545.46875 946.91211 C 548.63355 949.78682 552.62875 951.22461 557.45508 951.22461 C 562.17594 951.22461 566.13304 949.57598 569.32422 946.2793 C 572.5154 942.95626 574.11133 938.41934 574.11133 932.66992 L 574.11133 892.83398 L 562.48047 892.83398 z M 608.41211 892.83398 L 590.41211 950.43359 L 602.75391 950.43359 L 605.83984 938.64453 L 621.70312 938.64453 L 624.78906 950.43359 L 637.17188 950.43359 L 619.05273 892.83398 L 608.41211 892.83398 z M 649.07422 892.83398 L 649.07422 950.43359 L 660.74609 950.43359 L 660.74609 912.65234 L 677.75586 950.43359 L 689.38672 950.43359 L 689.38672 892.83398 L 677.75586 892.83398 L 677.75586 930.65234 L 660.74609 892.83398 L 649.07422 892.83398 z M 801.98633 892.83398 L 801.98633 950.43359 L 834.03125 950.43359 L 834.03125 940.7793 L 813.65625 940.7793 L 813.65625 892.83398 L 801.98633 892.83398 z M 856.50391 892.83398 L 856.50391 950.43359 L 889.57617 950.43359 L 889.57617 940.7793 L 868.17383 940.7793 L 868.17383 925.50977 L 886.25195 925.50977 L 886.25195 916.13477 L 868.17383 916.13477 L 868.17383 902.52539 L 889.49609 902.52539 L 889.49609 892.83398 L 856.50391 892.83398 z M 907.05664 892.83398 L 907.05664 950.43359 L 918.72656 950.43359 L 918.72656 912.65234 L 935.73828 950.43359 L 947.36914 950.43359 L 947.36914 892.83398 L 935.73828 892.83398 L 935.73828 930.65234 L 918.72656 892.83398 L 907.05664 892.83398 z M 1059.9688 892.83398 L 1059.9688 950.43359 L 1092.0117 950.43359 L 1092.0117 940.7793 L 1071.6387 940.7793 L 1071.6387 892.83398 L 1059.9688 892.83398 z M 1165.0371 892.83398 L 1165.0371 950.43359 L 1176.709 950.43359 L 1176.709 912.65234 L 1193.7188 950.43359 L 1205.3496 950.43359 L 1205.3496 892.83398 L 1193.7188 892.83398 L 1193.7188 930.65234 L 1176.709 892.83398 L 1165.0371 892.83398 z M 355.73047 901.77344 C 358.71066 901.77344 360.97912 902.96039 362.53516 905.33398 C 364.09119 907.7076 364.86914 911.63739 364.86914 917.12305 L 364.86914 927.05273 C 364.84277 932.16916 364.06481 935.86079 362.53516 938.12891 C 361.0055 940.39703 358.76437 941.53125 355.81055 941.53125 C 352.83035 941.53125 350.5492 940.38434 348.9668 938.08984 C 347.41077 935.76899 346.63281 931.99731 346.63281 926.77539 L 346.63281 916.80664 C 346.65919 911.45284 347.43714 907.61578 348.9668 905.29492 C 350.52283 902.94768 352.77665 901.77344 355.73047 901.77344 z M 1129.6758 901.77344 C 1132.656 901.77344 1134.9244 902.96039 1136.4805 905.33398 C 1138.0365 907.7076 1138.8145 911.63739 1138.8145 917.12305 L 1138.8145 927.05273 C 1138.7881 932.16916 1138.0101 935.86079 1136.4805 938.12891 C 1134.9508 940.39703 1132.7097 941.53125 1129.7559 941.53125 C 1126.7757 941.53125 1124.4926 940.38434 1122.9102 938.08984 C 1121.3541 935.76899 1120.5762 931.99731 1120.5762 926.77539 L 1120.5762 916.80664 C 1120.6025 911.45284 1121.3805 907.61578 1122.9102 905.29492 C 1124.4662 902.94768 1126.722 901.77344 1129.6758 901.77344 z M 613.75195 908.38086 L 619.17188 928.95117 L 608.37305 928.95117 L 613.75195 908.38086 z M 558.72266 956.84375 C 552.55127 956.84375 547.55267 958.96677 543.72852 963.21289 C 539.90439 967.43263 537.99219 973.6963 537.99219 982.00391 L 537.99219 991.57812 C 537.99219 999.70114 539.91707 1005.8066 543.76758 1009.8945 C 547.61811 1013.9824 552.62942 1016.0254 558.80078 1016.0254 C 564.99853 1016.0254 569.99715 1013.9824 573.79492 1009.8945 C 577.59269 1005.8066 579.49023 999.70114 579.49023 991.57812 L 579.49023 982.00391 C 579.49023 973.6963 577.57806 967.43263 573.75391 963.21289 C 569.92978 958.96677 564.9204 956.84375 558.72266 956.84375 z M 816.70312 956.84375 C 810.53178 956.84375 805.53509 958.96677 801.71094 963.21289 C 797.88679 967.43263 795.97461 973.6963 795.97461 982.00391 L 795.97461 991.57812 C 795.97461 999.70114 797.89947 1005.8066 801.75 1009.8945 C 805.60051 1013.9824 810.61184 1016.0254 816.7832 1016.0254 C 822.98097 1016.0254 827.97762 1013.9824 831.77539 1009.8945 C 835.57316 1005.8066 837.47266 999.70114 837.47266 991.57812 L 837.47266 982.00391 C 837.47266 973.6963 835.56048 967.43263 831.73633 963.21289 C 827.91218 958.96677 822.90087 956.84375 816.70312 956.84375 z M 1074.6855 956.84375 C 1068.5142 956.84375 1063.5155 958.96677 1059.6914 963.21289 C 1055.8673 967.43263 1053.9551 973.6963 1053.9551 982.00391 L 1053.9551 991.57812 C 1053.9551 999.70114 1055.88 1005.8066 1059.7305 1009.8945 C 1063.581 1013.9824 1068.5923 1016.0254 1074.7637 1016.0254 C 1080.9614 1016.0254 1085.96 1013.9824 1089.7578 1009.8945 C 1093.5556 1005.8066 1095.4531 999.70114 1095.4531 991.57812 L 1095.4531 982.00391 C 1095.4531 973.6963 1093.5409 967.43263 1089.7168 963.21289 C 1085.8926 958.96677 1080.8833 956.84375 1074.6855 956.84375 z M 37.457031 957.63477 L 19.457031 1015.2344 L 31.800781 1015.2344 L 34.886719 1003.4453 L 50.75 1003.4453 L 53.835938 1015.2344 L 66.21875 1015.2344 L 48.099609 957.63477 L 37.457031 957.63477 z M 77.152344 957.63477 L 77.152344 1015.2344 L 88.822266 1015.2344 L 88.822266 977.45508 L 105.83203 1015.2344 L 117.46289 1015.2344 L 117.46289 957.63477 L 105.83203 957.63477 L 105.83203 995.45508 L 88.822266 957.63477 L 77.152344 957.63477 z M 134.33789 957.63477 L 134.33789 997.15625 C 134.33789 1003.8287 136.10463 1008.6419 139.63867 1011.5957 C 143.17271 1014.5495 147.73501 1016.0254 153.32617 1016.0254 C 158.83821 1016.0254 163.37514 1014.5495 166.93555 1011.5957 C 170.49596 1008.6419 172.27539 1003.8287 172.27539 997.15625 L 172.27539 957.63477 L 160.60547 957.63477 L 160.60547 997.15625 C 160.60547 1000.9277 159.98565 1003.407 158.74609 1004.5938 C 157.53292 1005.7803 155.72615 1006.373 153.32617 1006.373 C 150.95257 1006.373 149.13311 1005.7803 147.86719 1004.5938 C 146.62764 1003.407 146.00781 1000.9277 146.00781 997.15625 L 146.00781 957.63477 L 134.33789 957.63477 z M 295.43945 957.63477 L 277.43945 1015.2344 L 289.78125 1015.2344 L 292.86719 1003.4453 L 308.73047 1003.4453 L 311.81641 1015.2344 L 324.19922 1015.2344 L 306.08008 957.63477 L 295.43945 957.63477 z M 335.13281 957.63477 L 335.13281 1015.2344 L 346.80273 1015.2344 L 346.80273 977.45508 L 363.81445 1015.2344 L 375.44531 1015.2344 L 375.44531 957.63477 L 363.81445 957.63477 L 363.81445 995.45508 L 346.80273 957.63477 L 335.13281 957.63477 z M 392.32031 957.63477 L 392.32031 997.15625 C 392.32031 1003.8287 394.08706 1008.6419 397.62109 1011.5957 C 401.15513 1014.5495 405.71744 1016.0254 411.30859 1016.0254 C 416.82063 1016.0254 421.35755 1014.5495 424.91797 1011.5957 C 428.47838 1008.6419 430.25781 1003.8287 430.25781 997.15625 L 430.25781 957.63477 L 418.58789 957.63477 L 418.58789 997.15625 C 418.58789 1000.9277 417.96807 1003.407 416.72852 1004.5938 C 415.51536 1005.7803 413.70859 1006.373 411.30859 1006.373 C 408.935 1006.373 407.11552 1005.7803 405.84961 1004.5938 C 404.61005 1003.407 403.99023 1000.9277 403.99023 997.15625 L 403.99023 957.63477 L 392.32031 957.63477 z M 593.11523 957.63477 L 593.11523 1015.2344 L 604.78516 1015.2344 L 604.78516 977.45508 L 621.79492 1015.2344 L 633.42578 1015.2344 L 633.42578 957.63477 L 621.79492 957.63477 L 621.79492 995.45508 L 604.78516 957.63477 L 593.11523 957.63477 z M 663.94922 957.63477 L 645.94922 1015.2344 L 658.29297 1015.2344 L 661.37891 1003.4453 L 677.24219 1003.4453 L 680.32812 1015.2344 L 692.70898 1015.2344 L 674.5918 957.63477 L 663.94922 957.63477 z M 851.0957 957.63477 L 851.0957 1015.2344 L 862.76562 1015.2344 L 862.76562 977.45508 L 879.77734 1015.2344 L 891.4082 1015.2344 L 891.4082 957.63477 L 879.77734 957.63477 L 879.77734 995.45508 L 862.76562 957.63477 L 851.0957 957.63477 z M 921.93164 957.63477 L 903.93164 1015.2344 L 916.27344 1015.2344 L 919.35938 1003.4453 L 935.22266 1003.4453 L 938.30859 1015.2344 L 950.69141 1015.2344 L 932.57227 957.63477 L 921.93164 957.63477 z M 1109.0781 957.63477 L 1109.0781 1015.2344 L 1120.748 1015.2344 L 1120.748 977.45508 L 1137.7598 1015.2344 L 1149.3887 1015.2344 L 1149.3887 957.63477 L 1137.7598 957.63477 L 1137.7598 995.45508 L 1120.748 957.63477 L 1109.0781 957.63477 z M 1179.9121 957.63477 L 1161.9121 1015.2344 L 1174.2559 1015.2344 L 1177.3418 1003.4453 L 1193.2051 1003.4453 L 1196.291 1015.2344 L 1208.6719 1015.2344 L 1190.5547 957.63477 L 1179.9121 957.63477 z M 558.72266 966.57617 C 561.70284 966.57617 563.96936 967.76312 565.52539 970.13672 C 567.08142 972.51034 567.85938 976.44012 567.85938 981.92578 L 567.85938 991.85547 C 567.83299 996.97192 567.05504 1000.6635 565.52539 1002.9316 C 563.99574 1005.1997 561.75461 1006.334 558.80078 1006.334 C 555.8206 1006.334 553.53944 1005.1871 551.95703 1002.8926 C 550.401 1000.5717 549.62305 996.80007 549.62305 991.57812 L 549.62305 981.60938 C 549.64943 976.25557 550.42738 972.41656 551.95703 970.0957 C 553.51306 967.74849 555.76883 966.57617 558.72266 966.57617 z M 816.70312 966.57617 C 819.68331 966.57617 821.95178 967.76312 823.50781 970.13672 C 825.06384 972.51034 825.8418 976.44012 825.8418 981.92578 L 825.8418 991.85547 C 825.81544 996.97192 825.03749 1000.6635 823.50781 1002.9316 C 821.97816 1005.1997 819.73703 1006.334 816.7832 1006.334 C 813.80302 1006.334 811.51991 1005.1871 809.9375 1002.8926 C 808.38147 1000.5717 807.60352 996.80007 807.60352 991.57812 L 807.60352 981.60938 C 807.6299 976.25557 808.40785 972.41656 809.9375 970.0957 C 811.49353 967.74849 813.74932 966.57617 816.70312 966.57617 z M 1074.6855 966.57617 C 1077.6657 966.57617 1079.9322 967.76312 1081.4883 970.13672 C 1083.0443 972.51034 1083.8223 976.44012 1083.8223 981.92578 L 1083.8223 991.85547 C 1083.7959 996.97192 1083.018 1000.6635 1081.4883 1002.9316 C 1079.9586 1005.1997 1077.7175 1006.334 1074.7637 1006.334 C 1071.7835 1006.334 1069.5023 1005.1871 1067.9199 1002.8926 C 1066.3639 1000.5717 1065.5859 996.80007 1065.5859 991.57812 L 1065.5859 981.60938 C 1065.6123 976.25557 1066.3903 972.41656 1067.9199 970.0957 C 1069.476 967.74849 1071.7317 966.57617 1074.6855 966.57617 z M 42.798828 973.18164 L 48.21875 993.75391 L 37.417969 993.75391 L 42.798828 973.18164 z M 300.7793 973.18164 L 306.19922 993.75391 L 295.40039 993.75391 L 300.7793 973.18164 z M 669.29102 973.18164 L 674.70898 993.75391 L 663.91016 993.75391 L 669.29102 973.18164 z M 927.27148 973.18164 L 932.69141 993.75391 L 921.89062 993.75391 L 927.27148 973.18164 z M 1185.2539 973.18164 L 1190.6738 993.75391 L 1179.873 993.75391 L 1185.2539 973.18164 z M 0 1099.7324 L 0 1105.0312 L 0 1335.584 L 198.7793 1335.584 L 198.7793 1099.7324 L 0 1099.7324 z M 257.98242 1099.7324 L 257.98242 1105.0312 L 257.98242 1335.584 L 456.75391 1335.584 L 456.75391 1099.7324 L 257.98242 1099.7324 z M 515.96484 1099.7324 L 515.96484 1105.0312 L 515.96484 1335.584 L 714.73633 1335.584 L 714.73633 1099.7324 L 515.96484 1099.7324 z M 773.94727 1099.7324 L 773.94727 1105.0312 L 773.94727 1335.584 L 972.71875 1335.584 L 972.71875 1099.7324 L 773.94727 1099.7324 z M 10.607422 1110.3398 L 188.17188 1110.3398 L 188.17188 1324.9824 L 10.607422 1324.9824 L 10.607422 1110.3398 z M 268.58984 1110.3398 L 446.1543 1110.3398 L 446.1543 1324.9824 L 268.58984 1324.9824 L 268.58984 1110.3398 z M 526.56445 1110.3398 L 704.13672 1110.3398 L 704.13672 1324.9824 L 526.56445 1324.9824 L 526.56445 1110.3398 z M 784.54688 1110.3398 L 962.11914 1110.3398 L 962.11914 1324.9824 L 784.54688 1324.9824 L 784.54688 1110.3398 z M 42.769531 1123.0645 C 36.598156 1123.0645 31.599534 1125.1875 27.775391 1129.4336 C 23.951247 1133.6534 22.039062 1139.917 22.039062 1148.2246 L 22.039062 1157.7988 C 22.039062 1165.9218 23.963936 1172.0273 27.814453 1176.1152 C 31.66497 1180.2031 36.676281 1182.2461 42.847656 1182.2461 C 49.045406 1182.2461 54.044027 1180.2031 57.841797 1176.1152 C 61.639567 1172.0273 63.537109 1165.9218 63.537109 1157.7988 L 63.537109 1148.2246 C 63.537109 1139.917 61.624925 1133.6534 57.800781 1129.4336 C 53.976637 1125.1875 48.967281 1123.0645 42.769531 1123.0645 z M 300.75 1123.0645 C 294.57862 1123.0645 289.58196 1125.1875 285.75781 1129.4336 C 281.93367 1133.6534 280.02148 1139.917 280.02148 1148.2246 L 280.02148 1157.7988 C 280.02148 1165.9218 281.94636 1172.0273 285.79688 1176.1152 C 289.64737 1180.2031 294.6587 1182.2461 300.83008 1182.2461 C 307.02783 1182.2461 312.0245 1180.2031 315.82227 1176.1152 C 319.62004 1172.0273 321.51953 1165.9218 321.51953 1157.7988 L 321.51953 1148.2246 C 321.51953 1139.917 319.60735 1133.6534 315.7832 1129.4336 C 311.95906 1125.1875 306.94775 1123.0645 300.75 1123.0645 z M 558.73242 1123.0645 C 552.56103 1123.0645 547.56241 1125.1875 543.73828 1129.4336 C 539.91413 1133.6534 538.00195 1139.917 538.00195 1148.2246 L 538.00195 1157.7988 C 538.00195 1165.9218 539.92684 1172.0273 543.77734 1176.1152 C 547.62788 1180.2031 552.63918 1182.2461 558.81055 1182.2461 C 565.00829 1182.2461 570.00692 1180.2031 573.80469 1176.1152 C 577.60246 1172.0273 579.5 1165.9218 579.5 1157.7988 L 579.5 1148.2246 C 579.5 1139.917 577.58975 1133.6534 573.76562 1129.4336 C 569.94149 1125.1875 564.93017 1123.0645 558.73242 1123.0645 z M 153.28711 1123.4648 C 147.11573 1123.4648 142.11906 1125.5879 138.29492 1129.834 C 134.47078 1134.0537 132.55859 1140.3174 132.55859 1148.625 L 132.55859 1158.1992 C 132.55859 1166.3222 134.48347 1172.4277 138.33398 1176.5156 C 142.1845 1180.6035 147.19581 1182.6484 153.36719 1182.6484 C 159.56494 1182.6484 164.5616 1180.6035 168.35938 1176.5156 C 172.15713 1172.4277 174.05664 1166.3222 174.05664 1158.1992 L 174.05664 1148.625 C 174.05664 1140.3174 172.14446 1134.0537 168.32031 1129.834 C 164.49617 1125.5879 159.48486 1123.4648 153.28711 1123.4648 z M 411.26953 1123.4648 C 405.09814 1123.4648 400.09952 1125.5879 396.27539 1129.834 C 392.45124 1134.0537 390.53906 1140.3174 390.53906 1148.625 L 390.53906 1158.1992 C 390.53906 1166.3222 392.46395 1172.4277 396.31445 1176.5156 C 400.16499 1180.6035 405.17629 1182.6484 411.34766 1182.6484 C 417.54543 1182.6484 422.54403 1180.6035 426.3418 1176.5156 C 430.13954 1172.4277 432.03906 1166.3222 432.03906 1158.1992 L 432.03906 1148.625 C 432.03906 1140.3174 430.12686 1134.0537 426.30273 1129.834 C 422.47858 1125.5879 417.46728 1123.4648 411.26953 1123.4648 z M 669.25 1123.4648 C 663.07861 1123.4648 658.08194 1125.5879 654.25781 1129.834 C 650.43366 1134.0537 648.52148 1140.3174 648.52148 1148.625 L 648.52148 1158.1992 C 648.52148 1166.3222 650.44637 1172.4277 654.29688 1176.5156 C 658.14739 1180.6035 663.15871 1182.6484 669.33008 1182.6484 C 675.52782 1182.6484 680.5245 1180.6035 684.32227 1176.5156 C 688.12004 1172.4277 690.01953 1166.3222 690.01953 1158.1992 L 690.01953 1148.625 C 690.01953 1140.3174 688.10733 1134.0537 684.2832 1129.834 C 680.45905 1125.5879 675.44775 1123.4648 669.25 1123.4648 z M 797.76367 1123.8555 L 797.76367 1163.377 C 797.76367 1170.0494 799.53042 1174.8626 803.06445 1177.8164 C 806.59849 1180.7702 811.16077 1182.2461 816.75195 1182.2461 C 822.26399 1182.2461 826.80091 1180.7702 830.36133 1177.8164 C 833.92172 1174.8626 835.70117 1170.0494 835.70117 1163.377 L 835.70117 1123.8555 L 824.03125 1123.8555 L 824.03125 1163.377 C 824.03125 1167.1484 823.41139 1169.6277 822.17188 1170.8145 C 820.9587 1172.0013 819.15193 1172.5938 816.75195 1172.5938 C 814.37833 1172.5938 812.55888 1172.0013 811.29297 1170.8145 C 810.05341 1169.6277 809.43359 1167.1484 809.43359 1163.377 L 809.43359 1123.8555 L 797.76367 1123.8555 z M 79.603516 1124.2559 L 79.603516 1181.8555 L 91.275391 1181.8555 L 91.275391 1165.3203 L 95.863281 1159.584 L 106.38672 1181.8555 L 120.1543 1181.8555 L 103.38086 1149.5762 L 119.87695 1124.2559 L 105.67383 1124.2559 L 94.953125 1143.127 L 91.275391 1149.2988 L 91.275391 1124.2559 L 79.603516 1124.2559 z M 337.58594 1124.2559 L 337.58594 1181.8555 L 349.25586 1181.8555 L 349.25586 1165.3203 L 353.8457 1159.584 L 364.36914 1181.8555 L 378.13477 1181.8555 L 361.36133 1149.5762 L 377.85742 1124.2559 L 363.65625 1124.2559 L 352.93555 1143.127 L 349.25586 1149.2988 L 349.25586 1124.2559 L 337.58594 1124.2559 z M 595.56836 1124.2559 L 595.56836 1181.8555 L 607.23828 1181.8555 L 607.23828 1165.3203 L 611.82617 1159.584 L 622.34961 1181.8555 L 636.11719 1181.8555 L 619.34375 1149.5762 L 635.83984 1124.2559 L 621.63867 1124.2559 L 610.91797 1143.127 L 607.23828 1149.2988 L 607.23828 1124.2559 L 595.56836 1124.2559 z M 851.37305 1124.2559 L 851.37305 1133.9492 L 865.37695 1133.9492 L 865.37695 1181.8555 L 877.00781 1181.8555 L 877.00781 1133.9492 L 891.28906 1133.9492 L 891.28906 1124.2559 L 851.37305 1124.2559 z M 921.93164 1124.2559 L 903.93164 1181.8555 L 916.27344 1181.8555 L 919.35938 1170.0664 L 935.22266 1170.0664 L 938.30859 1181.8555 L 950.69141 1181.8555 L 932.57227 1124.2559 L 921.93164 1124.2559 z M 42.769531 1132.7969 C 45.749727 1132.7969 48.016234 1133.9838 49.572266 1136.3574 C 51.128295 1138.731 51.90625 1142.6608 51.90625 1148.1465 L 51.90625 1158.0762 C 51.879876 1163.1926 51.101921 1166.8842 49.572266 1169.1523 C 48.042608 1171.4204 45.801478 1172.5547 42.847656 1172.5547 C 39.867463 1172.5547 37.586311 1171.4078 36.003906 1169.1133 C 34.447875 1166.7924 33.669922 1163.0208 33.669922 1157.7988 L 33.669922 1147.8301 C 33.696295 1142.4763 34.474249 1138.6392 36.003906 1136.3184 C 37.559938 1133.9711 39.815712 1132.7969 42.769531 1132.7969 z M 300.75 1132.7969 C 303.73019 1132.7969 305.99866 1133.9838 307.55469 1136.3574 C 309.11072 1138.731 309.88867 1142.6608 309.88867 1148.1465 L 309.88867 1158.0762 C 309.8623 1163.1926 309.08435 1166.8842 307.55469 1169.1523 C 306.02503 1171.4204 303.7839 1172.5547 300.83008 1172.5547 C 297.84988 1172.5547 295.56873 1171.4078 293.98633 1169.1133 C 292.4303 1166.7924 291.65234 1163.0208 291.65234 1157.7988 L 291.65234 1147.8301 C 291.67872 1142.4763 292.45667 1138.6392 293.98633 1136.3184 C 295.54236 1133.9711 297.79618 1132.7969 300.75 1132.7969 z M 558.73242 1132.7969 C 561.7126 1132.7969 563.98108 1133.9838 565.53711 1136.3574 C 567.09314 1138.731 567.87109 1142.6608 567.87109 1148.1465 L 567.87109 1158.0762 C 567.84471 1163.1926 567.06676 1166.8842 565.53711 1169.1523 C 564.00746 1171.4204 561.76437 1172.5547 558.81055 1172.5547 C 555.83036 1172.5547 553.54921 1171.4078 551.9668 1169.1133 C 550.41077 1166.7924 549.63281 1163.0208 549.63281 1157.7988 L 549.63281 1147.8301 C 549.65919 1142.4763 550.43715 1138.6392 551.9668 1136.3184 C 553.52283 1133.9711 555.77859 1132.7969 558.73242 1132.7969 z M 153.28711 1133.1973 C 156.2673 1133.1973 158.53577 1134.3842 160.0918 1136.7578 C 161.64783 1139.1314 162.42578 1143.0612 162.42578 1148.5469 L 162.42578 1158.4766 C 162.39941 1163.593 161.62145 1167.2846 160.0918 1169.5527 C 158.56214 1171.8209 156.32101 1172.9551 153.36719 1172.9551 C 150.38699 1172.9551 148.10584 1171.8081 146.52344 1169.5137 C 144.96741 1167.1928 144.18945 1163.4212 144.18945 1158.1992 L 144.18945 1148.2305 C 144.21583 1142.8767 144.99378 1139.0394 146.52344 1136.7188 C 148.07947 1134.3715 150.33329 1133.1973 153.28711 1133.1973 z M 411.26953 1133.1973 C 414.24971 1133.1973 416.51819 1134.3842 418.07422 1136.7578 C 419.63025 1139.1314 420.4082 1143.0612 420.4082 1148.5469 L 420.4082 1158.4766 C 420.38185 1163.593 419.60389 1167.2846 418.07422 1169.5527 C 416.54457 1171.8209 414.30148 1172.9551 411.34766 1172.9551 C 408.36747 1172.9551 406.08632 1171.8081 404.50391 1169.5137 C 402.94787 1167.1928 402.16992 1163.4212 402.16992 1158.1992 L 402.16992 1148.2305 C 402.1963 1142.8767 402.97426 1139.0394 404.50391 1136.7188 C 406.05994 1134.3715 408.3157 1133.1973 411.26953 1133.1973 z M 669.25 1133.1973 C 672.23018 1133.1973 674.49866 1134.3842 676.05469 1136.7578 C 677.61072 1139.1314 678.38867 1143.0612 678.38867 1148.5469 L 678.38867 1158.4766 C 678.36229 1163.593 677.58434 1167.2846 676.05469 1169.5527 C 674.52504 1171.8209 672.28391 1172.9551 669.33008 1172.9551 C 666.3499 1172.9551 664.06874 1171.8081 662.48633 1169.5137 C 660.9303 1167.1928 660.15234 1163.4212 660.15234 1158.1992 L 660.15234 1148.2305 C 660.17872 1142.8767 660.95668 1139.0394 662.48633 1136.7188 C 664.04236 1134.3715 666.29617 1133.1973 669.25 1133.1973 z M 927.27148 1139.8047 L 932.69141 1160.375 L 921.89062 1160.375 L 927.27148 1139.8047 z M 613.71289 1188.2676 C 607.5415 1188.2676 602.54288 1190.3906 598.71875 1194.6367 C 594.8946 1198.8565 592.98242 1205.1201 592.98242 1213.4277 L 592.98242 1223.002 C 592.98242 1231.125 594.90923 1237.2285 598.75977 1241.3164 C 602.61027 1245.4043 607.61965 1247.4492 613.79102 1247.4492 C 619.98879 1247.4492 624.98739 1245.4043 628.78516 1241.3164 C 632.58293 1237.2285 634.48242 1231.125 634.48242 1223.002 L 634.48242 1213.4277 C 634.48242 1205.1201 632.57025 1198.8565 628.74609 1194.6367 C 624.92194 1190.3906 619.91064 1188.2676 613.71289 1188.2676 z M 25.035156 1189.0586 L 25.035156 1246.6582 L 36.705078 1246.6582 L 36.705078 1230.1211 L 41.294922 1224.3848 L 51.818359 1246.6582 L 65.583984 1246.6582 L 48.810547 1214.377 L 65.308594 1189.0586 L 51.105469 1189.0586 L 40.384766 1207.9277 L 36.705078 1214.0996 L 36.705078 1189.0586 L 25.035156 1189.0586 z M 82.558594 1189.0586 L 82.558594 1246.6582 L 115.63086 1246.6582 L 115.63086 1237.0059 L 94.228516 1237.0059 L 94.228516 1221.7344 L 112.30859 1221.7344 L 112.30859 1212.3594 L 94.228516 1212.3594 L 94.228516 1198.75 L 115.55078 1198.75 L 115.55078 1189.0586 L 82.558594 1189.0586 z M 133.11133 1189.0586 L 133.11133 1246.6582 L 144.78125 1246.6582 L 144.78125 1208.8789 L 161.79297 1246.6582 L 173.42383 1246.6582 L 173.42383 1189.0586 L 161.79297 1189.0586 L 161.79297 1226.8789 L 144.78125 1189.0586 L 133.11133 1189.0586 z M 283.01758 1189.0586 L 283.01758 1246.6582 L 294.6875 1246.6582 L 294.6875 1230.1211 L 299.27734 1224.3848 L 309.79883 1246.6582 L 323.56641 1246.6582 L 306.79297 1214.377 L 323.28906 1189.0586 L 309.08789 1189.0586 L 298.36719 1207.9277 L 294.6875 1214.0996 L 294.6875 1189.0586 L 283.01758 1189.0586 z M 349.91602 1189.0586 L 349.91602 1246.6582 L 361.54688 1246.6582 L 361.54688 1189.0586 L 349.91602 1189.0586 z M 391.09375 1189.0586 L 391.09375 1246.6582 L 402.76367 1246.6582 L 402.76367 1208.8789 L 419.77539 1246.6582 L 431.4043 1246.6582 L 431.4043 1189.0586 L 419.77539 1189.0586 L 419.77539 1226.8789 L 402.76367 1189.0586 L 391.09375 1189.0586 z M 541 1189.0586 L 541 1246.6582 L 552.66992 1246.6582 L 552.66992 1230.1211 L 557.25781 1224.3848 L 567.78125 1246.6582 L 581.54883 1246.6582 L 564.77539 1214.377 L 581.27148 1189.0586 L 567.06836 1189.0586 L 556.34766 1207.9277 L 552.66992 1214.0996 L 552.66992 1189.0586 L 541 1189.0586 z M 649.07422 1189.0586 L 649.07422 1246.6582 L 660.74609 1246.6582 L 660.74609 1208.8789 L 677.75586 1246.6582 L 689.38672 1246.6582 L 689.38672 1189.0586 L 677.75586 1189.0586 L 677.75586 1226.8789 L 660.74609 1189.0586 L 649.07422 1189.0586 z M 796.80469 1189.0586 L 796.80469 1198.75 L 810.80859 1198.75 L 810.80859 1246.6582 L 822.43945 1246.6582 L 822.43945 1198.75 L 836.7207 1198.75 L 836.7207 1189.0586 L 796.80469 1189.0586 z M 866.39258 1189.0586 L 848.39258 1246.6582 L 860.73633 1246.6582 L 863.82227 1234.8691 L 879.68555 1234.8691 L 882.77148 1246.6582 L 895.1543 1246.6582 L 877.03516 1189.0586 L 866.39258 1189.0586 z M 907.05664 1189.0586 L 907.05664 1246.6582 L 918.72656 1246.6582 L 918.72656 1208.8789 L 935.73828 1246.6582 L 947.36719 1246.6582 L 947.36719 1189.0586 L 935.73828 1189.0586 L 935.73828 1226.8789 L 918.72656 1189.0586 L 907.05664 1189.0586 z M 613.71289 1198 C 616.69307 1198 618.96155 1199.185 620.51758 1201.5586 C 622.07361 1203.9322 622.85156 1207.862 622.85156 1213.3477 L 622.85156 1223.2773 C 622.82521 1228.3938 622.04725 1232.0873 620.51758 1234.3555 C 618.98793 1236.6236 616.74484 1237.7578 613.79102 1237.7578 C 610.81083 1237.7578 608.52968 1236.609 606.94727 1234.3145 C 605.39123 1231.9936 604.61328 1228.2239 604.61328 1223.002 L 604.61328 1213.0312 C 604.63966 1207.6776 605.41762 1203.8404 606.94727 1201.5195 C 608.5033 1199.1723 610.75906 1198 613.71289 1198 z M 871.73438 1204.6055 L 877.1543 1225.1777 L 866.35352 1225.1777 L 871.73438 1204.6055 z M 42.757812 1253.0684 C 36.586438 1253.0684 31.589768 1255.1914 27.765625 1259.4375 C 23.941482 1263.6572 22.029297 1269.9209 22.029297 1278.2285 L 22.029297 1287.8027 C 22.029297 1295.9257 23.954171 1302.0313 27.804688 1306.1191 C 31.655202 1310.207 36.666514 1312.25 42.837891 1312.25 C 49.035641 1312.25 54.034264 1310.207 57.832031 1306.1191 C 61.629801 1302.0313 63.527344 1295.9257 63.527344 1287.8027 L 63.527344 1278.2285 C 63.527344 1269.9209 61.615157 1263.6572 57.791016 1259.4375 C 53.966872 1255.1914 48.955563 1253.0684 42.757812 1253.0684 z M 300.74023 1253.0684 C 294.56886 1253.0684 289.57024 1255.1914 285.74609 1259.4375 C 281.92195 1263.6572 280.01172 1269.9209 280.01172 1278.2285 L 280.01172 1287.8027 C 280.01172 1295.9257 281.93659 1302.0313 285.78711 1306.1191 C 289.63763 1310.207 294.64894 1312.25 300.82031 1312.25 C 307.01806 1312.25 312.01473 1310.207 315.8125 1306.1191 C 319.61027 1302.0313 321.50977 1295.9257 321.50977 1287.8027 L 321.50977 1278.2285 C 321.50977 1269.9209 319.59758 1263.6572 315.77344 1259.4375 C 311.94929 1255.1914 306.93798 1253.0684 300.74023 1253.0684 z M 558.72266 1253.0684 C 552.55127 1253.0684 547.55264 1255.1914 543.72852 1259.4375 C 539.90436 1263.6572 537.99219 1269.9209 537.99219 1278.2285 L 537.99219 1287.8027 C 537.99219 1295.9257 539.91707 1302.0313 543.76758 1306.1191 C 547.61811 1310.207 552.62942 1312.25 558.80078 1312.25 C 564.99853 1312.25 569.99715 1310.207 573.79492 1306.1191 C 577.59269 1302.0313 579.49023 1295.9257 579.49023 1287.8027 L 579.49023 1278.2285 C 579.49023 1269.9209 577.57803 1263.6572 573.75391 1259.4375 C 569.92975 1255.1914 564.9204 1253.0684 558.72266 1253.0684 z M 77.152344 1253.8594 L 77.152344 1311.459 L 88.822266 1311.459 L 88.822266 1273.6797 L 105.83203 1311.459 L 117.46289 1311.459 L 117.46289 1253.8594 L 105.83203 1253.8594 L 105.83203 1291.6797 L 88.822266 1253.8594 L 77.152344 1253.8594 z M 147.98633 1253.8594 L 129.98633 1311.459 L 142.33008 1311.459 L 145.41602 1299.6699 L 161.2793 1299.6699 L 164.36523 1311.459 L 176.74609 1311.459 L 158.62891 1253.8594 L 147.98633 1253.8594 z M 335.13281 1253.8594 L 335.13281 1311.459 L 346.80273 1311.459 L 346.80273 1273.6797 L 363.81445 1311.459 L 375.44531 1311.459 L 375.44531 1253.8594 L 363.81445 1253.8594 L 363.81445 1291.6797 L 346.80273 1253.8594 L 335.13281 1253.8594 z M 405.96875 1253.8594 L 387.96875 1311.459 L 400.31055 1311.459 L 403.39648 1299.6699 L 419.25977 1299.6699 L 422.3457 1311.459 L 434.72852 1311.459 L 416.60938 1253.8594 L 405.96875 1253.8594 z M 593.11523 1253.8594 L 593.11523 1311.459 L 604.78516 1311.459 L 604.78516 1273.6797 L 621.79688 1311.459 L 633.42578 1311.459 L 633.42578 1253.8594 L 621.79688 1253.8594 L 621.79688 1291.6797 L 604.78516 1253.8594 L 593.11523 1253.8594 z M 663.94922 1253.8594 L 645.94922 1311.459 L 658.29297 1311.459 L 661.37891 1299.6699 L 677.24219 1299.6699 L 680.32812 1311.459 L 692.70898 1311.459 L 674.5918 1253.8594 L 663.94922 1253.8594 z M 811.40234 1253.8594 L 793.40234 1311.459 L 805.74414 1311.459 L 808.83008 1299.6699 L 824.69531 1299.6699 L 827.7793 1311.459 L 840.16211 1311.459 L 822.04297 1253.8594 L 811.40234 1253.8594 z M 851.0957 1253.8594 L 851.0957 1311.459 L 862.76562 1311.459 L 862.76562 1273.6797 L 879.77734 1311.459 L 891.4082 1311.459 L 891.4082 1253.8594 L 879.77734 1253.8594 L 879.77734 1291.6797 L 862.76562 1253.8594 L 851.0957 1253.8594 z M 908.2832 1253.8594 L 908.2832 1293.3809 C 908.2832 1300.0533 910.04995 1304.8665 913.58398 1307.8203 C 917.11802 1310.7741 921.6803 1312.25 927.27148 1312.25 C 932.78352 1312.25 937.32044 1310.7741 940.88086 1307.8203 C 944.44125 1304.8665 946.2207 1300.0533 946.2207 1293.3809 L 946.2207 1253.8594 L 934.55078 1253.8594 L 934.55078 1293.3809 C 934.55078 1297.1523 933.93094 1299.6316 932.69141 1300.8184 C 931.47823 1302.0052 929.67146 1302.5977 927.27148 1302.5977 C 924.89787 1302.5977 923.07842 1302.0052 921.8125 1300.8184 C 920.57294 1299.6316 919.95313 1297.1523 919.95312 1293.3809 L 919.95312 1253.8594 L 908.2832 1253.8594 z M 42.757812 1262.8008 C 45.738008 1262.8008 48.006471 1263.9877 49.5625 1266.3613 C 51.118532 1268.7349 51.896484 1272.6647 51.896484 1278.1504 L 51.896484 1288.0801 C 51.870111 1293.1965 51.092158 1296.8883 49.5625 1299.1562 C 48.032845 1301.4243 45.791712 1302.5586 42.837891 1302.5586 C 39.857695 1302.5586 37.576544 1301.4117 35.994141 1299.1172 C 34.43811 1296.7963 33.660156 1293.0247 33.660156 1287.8027 L 33.660156 1277.834 C 33.68653 1272.4802 34.464483 1268.6431 35.994141 1266.3223 C 37.55017 1263.9751 39.803993 1262.8008 42.757812 1262.8008 z M 300.74023 1262.8008 C 303.72043 1262.8008 305.98889 1263.9877 307.54492 1266.3613 C 309.10095 1268.7349 309.87891 1272.6647 309.87891 1278.1504 L 309.87891 1288.0801 C 309.85253 1293.1965 309.07458 1296.8883 307.54492 1299.1562 C 306.01526 1301.4243 303.77413 1302.5586 300.82031 1302.5586 C 297.84012 1302.5586 295.55701 1301.4117 293.97461 1299.1172 C 292.41858 1296.7963 291.64062 1293.0247 291.64062 1287.8027 L 291.64062 1277.834 C 291.667 1272.4802 292.44495 1268.6431 293.97461 1266.3223 C 295.53064 1263.9751 297.78642 1262.8008 300.74023 1262.8008 z M 558.72266 1262.8008 C 561.70284 1262.8008 563.96936 1263.9877 565.52539 1266.3613 C 567.08142 1268.7349 567.85938 1272.6647 567.85938 1278.1504 L 567.85938 1288.0801 C 567.83299 1293.1965 567.05504 1296.8883 565.52539 1299.1562 C 563.99574 1301.4243 561.75461 1302.5586 558.80078 1302.5586 C 555.8206 1302.5586 553.53944 1301.4117 551.95703 1299.1172 C 550.401 1296.7963 549.62305 1293.0247 549.62305 1287.8027 L 549.62305 1277.834 C 549.64943 1272.4802 550.42738 1268.6431 551.95703 1266.3223 C 553.51306 1263.9751 555.76883 1262.8008 558.72266 1262.8008 z M 153.32617 1269.4082 L 158.74609 1289.9785 L 147.94727 1289.9785 L 153.32617 1269.4082 z M 411.30859 1269.4082 L 416.72852 1289.9785 L 405.92773 1289.9785 L 411.30859 1269.4082 z M 669.29102 1269.4082 L 674.71094 1289.9785 L 663.91016 1289.9785 L 669.29102 1269.4082 z M 816.74219 1269.4082 L 822.16211 1289.9785 L 811.36328 1289.9785 L 816.74219 1269.4082 z M 172.83789 1428.0918 C 168.24892 1428.0918 164.59732 1429.635 161.88086 1432.7207 C 159.1644 1435.8064 157.80469 1439.5507 157.80469 1443.9551 L 164.76758 1443.9551 C 164.76758 1440.9485 165.49282 1438.562 166.94336 1436.7949 C 168.42027 1435.0015 170.38517 1434.1055 172.83789 1434.1055 C 178.03345 1434.1055 180.63086 1437.4808 180.63086 1444.2324 C 180.63086 1447.0544 179.89293 1449.4029 178.41602 1451.2754 C 176.96548 1453.1479 174.73704 1454.084 171.73047 1454.084 L 167.2207 1454.084 L 167.2207 1460.0957 L 171.375 1460.0957 C 177.99472 1460.0957 181.30469 1463.5911 181.30469 1470.5801 C 181.30469 1474.1669 180.52673 1476.8443 178.9707 1478.6113 C 177.44105 1480.3784 175.38342 1481.2617 172.79883 1481.2617 C 170.18786 1481.2617 168.14293 1480.351 166.66602 1478.5312 C 165.21548 1476.7115 164.49023 1474.2849 164.49023 1471.252 L 157.48828 1471.252 C 157.48828 1476.3684 158.9661 1480.3255 161.91992 1483.1211 C 164.87374 1485.8903 168.49997 1487.2734 172.79883 1487.2734 C 177.20319 1487.2734 180.88212 1485.8103 183.83594 1482.8828 C 186.81613 1479.9554 188.30664 1475.802 188.30664 1470.4219 C 188.30664 1467.8109 187.7649 1465.2135 186.68359 1462.6289 C 185.60228 1460.0179 183.43924 1458.1058 180.19531 1456.8926 C 182.83265 1455.5212 184.73215 1453.6343 185.89258 1451.2344 C 187.05301 1448.808 187.63281 1446.5269 187.63281 1444.3906 C 187.63281 1439.0368 186.26236 1434.9889 183.51953 1432.2461 C 180.7767 1429.4769 177.21588 1428.0918 172.83789 1428.0918 z M 22.787109 1428.8828 L 1.3847656 1468.7988 L 1.3847656 1473.1113 L 23.181641 1473.1113 L 23.181641 1486.4824 L 30.183594 1486.4824 L 30.183594 1473.1113 L 36.59375 1473.1113 L 36.59375 1467.0996 L 30.183594 1467.0996 L 30.183594 1428.8828 L 22.787109 1428.8828 z M 23.181641 1439.6035 L 23.181641 1467.0996 L 9.1777344 1467.0996 L 22.787109 1440.4355 L 23.181641 1439.6035 z M 77.498047 1442.8887 C 73.462915 1442.8887 69.811317 1444.4172 66.541016 1447.4766 C 63.270714 1450.5095 61.634766 1455.7971 61.634766 1463.3398 L 61.634766 1468.3652 C 61.661139 1474.8267 63.164336 1479.5999 66.144531 1482.6855 C 69.124724 1485.7448 73.172623 1487.2734 78.289062 1487.2734 C 81.981341 1487.2734 84.922337 1486.6155 87.111328 1485.2969 C 89.326693 1483.9518 91.01535 1482.4613 92.175781 1480.8262 L 88.496094 1476.4355 C 87.335663 1477.8597 85.990593 1479.032 84.460938 1479.9551 C 82.957653 1480.8518 81.03278 1481.3008 78.685547 1481.3008 C 75.441619 1481.3008 72.949628 1480.2593 71.208984 1478.1758 C 69.494712 1476.0659 68.636719 1472.7286 68.636719 1468.166 L 68.636719 1467.1387 L 92.492188 1467.1387 L 92.492188 1463.0645 C 92.492188 1456.5239 91.330625 1451.5252 89.009766 1448.0703 C 86.688906 1444.6154 82.851846 1442.8887 77.498047 1442.8887 z M 118.16602 1442.8887 C 113.94627 1442.8887 110.47818 1444.6681 107.76172 1448.2285 L 107.56445 1443.6797 L 100.95703 1443.6797 L 100.95703 1486.4824 L 107.95898 1486.4824 L 107.95898 1455.3496 C 108.82931 1453.4771 109.95085 1451.9612 111.32227 1450.8008 C 112.72006 1449.6404 114.27596 1449.0586 115.99023 1449.0586 C 118.23198 1449.0586 119.90599 1449.7712 121.01367 1451.1953 C 122.12136 1452.6195 122.67578 1455.0061 122.67578 1458.3555 L 122.67578 1486.4824 L 129.67773 1486.4824 L 129.67773 1458.4355 C 129.67773 1452.818 128.63623 1448.8228 126.55273 1446.4492 C 124.46924 1444.0756 121.67368 1442.8887 118.16602 1442.8887 z M 77.498047 1448.9004 C 80.55736 1448.9004 82.602296 1449.9565 83.630859 1452.0664 C 84.685791 1454.1763 85.305617 1456.8791 85.490234 1460.1758 L 85.490234 1461.1641 L 68.675781 1461.1641 C 68.913143 1456.3377 69.836536 1453.0951 71.445312 1451.4336 C 73.054091 1449.7457 75.071693 1448.9004 77.498047 1448.9004 z M 0 1527.9258 L 0 1533.2266 L 0 1763.7773 L 256.51367 1763.7773 L 256.51367 1527.9258 L 0 1527.9258 z M 10.607422 1538.5332 L 245.90625 1538.5332 L 245.90625 1753.1758 L 10.607422 1753.1758 L 10.607422 1538.5332 z M 154.03906 1551.6602 C 148.68526 1551.6602 144.30647 1553.138 140.9043 1556.0918 C 137.50213 1559.0193 135.80273 1562.909 135.80273 1567.7617 C 135.80273 1572.7199 137.42404 1576.557 140.66797 1579.2734 C 143.72728 1581.8317 147.3008 1583.942 151.38867 1585.6035 C 155.47655 1587.265 157.99587 1588.7409 158.94531 1590.0332 C 159.92113 1591.2991 160.4082 1592.9224 160.4082 1594.9004 C 160.4082 1596.7465 159.94651 1598.2878 159.02344 1599.5273 C 158.10037 1600.7405 156.51908 1601.3477 154.27734 1601.3477 C 151.53451 1601.3477 149.4642 1600.6351 148.06641 1599.2109 C 146.69499 1597.7868 146.00781 1595.3348 146.00781 1591.8535 L 134.33789 1591.8535 C 134.33789 1596.2315 135.31401 1599.8177 137.26562 1602.6133 C 139.21726 1605.4089 141.70925 1607.4792 144.74219 1608.8242 C 147.8015 1610.1693 150.98067 1610.8418 154.27734 1610.8418 C 159.76301 1610.8418 164.09983 1609.444 167.29102 1606.6484 C 170.4822 1603.8265 172.07812 1599.884 172.07812 1594.8203 C 172.07812 1590.0731 170.74574 1586.2487 168.08203 1583.3477 C 165.41832 1580.4466 161.39775 1578.0346 156.01758 1576.1094 C 153.43299 1574.9753 151.34998 1573.7737 149.76758 1572.5078 C 148.21155 1571.2419 147.43359 1569.6733 147.43359 1567.8008 C 147.43359 1565.9546 147.94605 1564.3858 148.97461 1563.0938 C 150.02955 1561.8015 151.65281 1561.1543 153.8418 1561.1543 C 156.2154 1561.1543 157.91675 1561.9322 158.94531 1563.4883 C 160.00025 1565.0443 160.52734 1567.0219 160.52734 1569.4219 L 172.1582 1569.4219 C 172.1582 1564.2263 170.50957 1559.9676 167.21289 1556.6445 C 163.94259 1553.3215 159.5511 1551.6602 154.03906 1551.6602 z M 211.81055 1551.6602 C 205.63917 1551.6602 200.6425 1553.7832 196.81836 1558.0293 C 192.99422 1562.2491 191.08203 1568.5127 191.08203 1576.8203 L 191.08203 1586.3945 C 191.08203 1594.5175 193.0069 1600.6231 196.85742 1604.7109 C 200.70794 1608.7988 205.71927 1610.8418 211.89062 1610.8418 C 218.08838 1610.8418 223.08504 1608.7988 226.88281 1604.7109 C 230.68058 1600.6231 232.58008 1594.5175 232.58008 1586.3945 L 232.58008 1576.8203 C 232.58008 1568.5127 230.66789 1562.2491 226.84375 1558.0293 C 223.01961 1553.7832 218.00829 1551.6602 211.81055 1551.6602 z M 28.052734 1552.0508 L 28.052734 1609.6504 L 60.095703 1609.6504 L 60.095703 1599.998 L 39.722656 1599.998 L 39.722656 1552.0508 L 28.052734 1552.0508 z M 92.025391 1552.4512 L 74.027344 1610.0508 L 86.369141 1610.0508 L 89.455078 1598.2617 L 105.31836 1598.2617 L 108.4043 1610.0508 L 120.78711 1610.0508 L 102.66797 1552.4512 L 92.025391 1552.4512 z M 211.81055 1561.3926 C 214.79074 1561.3926 217.0592 1562.5795 218.61523 1564.9531 C 220.17127 1567.3267 220.94922 1571.2565 220.94922 1576.7422 L 220.94922 1586.6719 C 220.92285 1591.7883 220.14489 1595.4799 218.61523 1597.748 C 217.08558 1600.0161 214.84445 1601.1504 211.89062 1601.1504 C 208.91045 1601.1504 206.62926 1600.0035 205.04688 1597.709 C 203.49085 1595.3881 202.71289 1591.6165 202.71289 1586.3945 L 202.71289 1576.4258 C 202.73926 1571.072 203.51722 1567.233 205.04688 1564.9121 C 206.60289 1562.5649 208.85673 1561.3926 211.81055 1561.3926 z M 97.367188 1567.998 L 102.78711 1588.5703 L 91.986328 1588.5703 L 97.367188 1567.998 z M 42.757812 1616.4609 C 36.586438 1616.4609 31.589768 1618.584 27.765625 1622.8301 C 23.941482 1627.0498 22.029297 1633.3154 22.029297 1641.623 L 22.029297 1651.1953 C 22.029297 1659.3183 23.954171 1665.4239 27.804688 1669.5117 C 31.655202 1673.5996 36.666514 1675.6445 42.837891 1675.6445 C 49.035641 1675.6445 54.034264 1673.5996 57.832031 1669.5117 C 61.629801 1665.4239 63.527344 1659.3183 63.527344 1651.1953 L 63.527344 1641.623 C 63.527344 1633.3154 61.615157 1627.0498 57.791016 1622.8301 C 53.966872 1618.584 48.955563 1616.4609 42.757812 1616.4609 z M 83.033203 1617.2539 L 83.033203 1674.8535 L 115.07617 1674.8535 L 115.07617 1665.1992 L 94.703125 1665.1992 L 94.703125 1617.2539 L 83.033203 1617.2539 z M 147.47266 1617.2539 L 147.47266 1674.8535 L 159.10352 1674.8535 L 159.10352 1617.2539 L 147.47266 1617.2539 z M 191.63477 1617.2539 L 191.63477 1674.8535 L 203.30664 1674.8535 L 203.30664 1637.0723 L 220.31641 1674.8535 L 231.94727 1674.8535 L 231.94727 1617.2539 L 220.31641 1617.2539 L 220.31641 1655.0723 L 203.30664 1617.2539 L 191.63477 1617.2539 z M 42.757812 1626.1934 C 45.738008 1626.1934 48.006471 1627.3803 49.5625 1629.7539 C 51.118532 1632.1275 51.896484 1636.0573 51.896484 1641.543 L 51.896484 1651.4727 C 51.870111 1656.5891 51.092158 1660.2807 49.5625 1662.5488 C 48.032845 1664.8169 45.791712 1665.9512 42.837891 1665.9512 C 39.857695 1665.9512 37.576544 1664.8042 35.994141 1662.5098 C 34.43811 1660.1889 33.660156 1656.4172 33.660156 1651.1953 L 33.660156 1641.2266 C 33.68653 1635.8728 34.464483 1632.0357 35.994141 1629.7148 C 37.55017 1627.3676 39.803993 1626.1934 42.757812 1626.1934 z M 22.583984 1682.0547 L 22.583984 1739.6543 L 34.253906 1739.6543 L 34.253906 1701.875 L 51.263672 1739.6543 L 62.894531 1739.6543 L 62.894531 1682.0547 L 51.263672 1682.0547 L 51.263672 1719.875 L 34.253906 1682.0547 L 22.583984 1682.0547 z M 82.136719 1682.0547 L 82.136719 1739.6543 L 115.20898 1739.6543 L 115.20898 1730.002 L 93.806641 1730.002 L 93.806641 1714.7324 L 111.88477 1714.7324 L 111.88477 1705.3555 L 93.806641 1705.3555 L 93.806641 1691.748 L 115.12891 1691.748 L 115.12891 1682.0547 L 82.136719 1682.0547 z M 133.11133 1682.0547 L 133.11133 1739.6543 L 144.78125 1739.6543 L 144.78125 1701.875 L 161.79297 1739.6543 L 173.42383 1739.6543 L 173.42383 1682.0547 L 161.79297 1682.0547 L 161.79297 1719.875 L 144.78125 1682.0547 L 133.11133 1682.0547 z M 206.50977 1682.0547 L 188.50977 1739.6543 L 200.85352 1739.6543 L 203.93945 1727.8652 L 219.80273 1727.8652 L 222.88867 1739.6543 L 235.26953 1739.6543 L 217.15234 1682.0547 L 206.50977 1682.0547 z M 211.85156 1697.6016 L 217.26953 1718.1738 L 206.4707 1718.1738 L 211.85156 1697.6016 z "
     fill="#fff" />
</svg>
