<?xml version="1.0" encoding="UTF-8" standalone="no"?>
<svg
   xmlns="http://www.w3.org/2000/svg"
   width="190.00006px"
   height="113.39664px"
   version="1.1">
   <path
      d="M 152.43111,0 C 147.37013,-0.03281278 144.31942,1.5620145 141.70153,3.2819666 c -4.83736,3.1781413 -8.8252,7.6975184 -12.04268,12.5087974 -3.95734,5.917607 -6.17175,12.85985 -8.56123,19.56573 -2.13268,5.98518 -4.10027,12.089292 -5.12372,18.36012 -1.1243,6.888782 0.67574,13.500314 -3.62459,5.535062 C 107.72592,50.687992 102.31457,42.433659 95.222195,35.899613 90.369303,31.428744 83.522672,25.669935 78.908979,25.850615 c -4.6137,0.180678 -4.747749,2.36518 -6.217708,3.833874 -1.409054,1.407846 -3.545416,2.634327 -3.802351,4.609537 -0.918326,7.059699 1.880923,13.397777 4.763016,19.055169 2.96476,5.819662 -0.0855,3.743302 -4.270023,2.68459 -7.034067,-1.779667 -14.280803,-2.731704 -21.423497,-2.845305 -0.74208,-0.0118 -1.499084,-0.01834 -2.265495,-0.01344 -5.364898,0.03435 -11.161786,0.637336 -15.084351,4.043682 -1.785839,1.550816 -2.840601,2.093698 -2.558502,6.6182 0.210791,3.380759 -2.848291,1.711693 -5.304068,1.704287 -4.978668,-0.015 -8.566911,0.837354 -12.9831862,2.646352 C 1.8022671,71.448345 -2.6186387,76.99322 1.6723515,86.071222 5.9633376,95.14921 11.707796,98.63616 15.067916,101.64237 c 3.360119,3.0062 8.555164,7.81396 16.587618,9.51156 8.032454,1.69759 7.898818,1.35718 21.062281,2.15749 6.666587,0.40531 14.149387,-0.59094 18.984886,-3.93826 0.613529,-0.4247 0.984324,-1.32487 1.705324,-1.38958 2.046293,-0.18366 3.898114,0.37267 5.294765,0.18345 6.462794,-0.87559 10.290913,0.68057 15.21406,-0.55035 4.250449,-1.06274 8.19433,-3.55063 12.22354,-5.20537 1.46518,-0.60173 2.67584,1.64613 4.20078,1.89136 3.64444,0.58606 7.55999,-0.71054 10.78642,-2.50373 2.02994,-1.12819 4.62088,-2.62917 4.92166,-4.93199 0.3823,-2.926834 1.10837,-0.69468 2.75074,-0.0227 6.273,2.56646 13.63197,1.51218 20.32796,0.46302 6.2271,-0.97568 12.65169,-2.651638 17.86661,-6.191869 7.06945,-4.799211 12.8962,-11.781628 16.74006,-19.41277 4.25165,-8.440729 6.57501,-18.214972 6.23218,-27.659808 -0.27149,-7.479425 -2.83997,-14.966254 -6.51072,-21.488617 -3.28461,-5.8363 -7.90735,-11.145183 -13.41365,-14.9572261 C 164.29543,3.618319 157.49209,0.03387002 152.43111,0 Z M 147.38439,13.630172 c 1.14793,0.02818 2.34056,0.468353 3.21117,1.141016 4.24717,3.28152 5.92268,9.260963 6.93446,14.531928 0.61988,3.22925 0.65613,6.825176 -0.65009,9.84281 -1.0085,2.32986 -3.09923,4.137321 -5.1971,5.567103 -2.24851,1.532451 -6.89192,4.239797 -7.59075,3.003433 -0.41527,-0.734684 -0.13761,-1.753338 0.20774,-2.52336 1.07823,-2.404081 3.69833,-3.756737 5.45083,-5.724197 0.73557,-0.825796 1.87867,-1.470615 2.12287,-2.549199 0.47988,-2.119514 -0.701,-4.343247 -1.60714,-6.318478 -0.7293,-1.589743 -2.30679,-2.696022 -3.01015,-4.297411 -0.70769,-1.611224 0.5645,-4.700808 -1.13533,-5.156274 -0.82853,-0.222006 -1.73436,2.8292 -2.22622,4.39663 -0.83303,2.654739 -0.35474,5.603113 -1.1591,8.266679 -0.51868,1.7175 -0.53825,4.977508 -2.32803,4.852934 -1.15064,-0.08009 -0.91688,-2.151772 -1.05006,-3.297473 -0.30973,-2.664179 0.2075,-5.372169 0.61753,-8.022767 0.44738,-2.892151 0.73046,-5.912386 2.00298,-8.547798 0.9116,-1.88792 1.93779,-4.201587 3.90312,-4.931482 0.4688,-0.174104 0.98149,-0.246904 1.50327,-0.234094 z m -15.10606,9.273336 c 0.97455,-0.0249 2.04668,0.550399 2.70578,1.247986 1.52735,1.616506 1.41011,4.239273 1.76475,6.434748 0.45003,2.785203 1.32954,5.772817 0.44597,8.452199 -0.257,0.779307 -0.75147,1.991157 -1.56683,1.898592 -2.58648,-0.293645 -0.89154,-6.887078 -3.49281,-6.984587 -0.68451,-0.02569 -0.78541,1.134187 -1.0542,1.764234 -0.86395,2.025168 -1.33678,4.206663 -1.74821,6.369637 -0.29422,1.546643 -0.07,3.183543 -0.50954,4.69532 -0.5045,1.735253 -1.85984,3.138125 -2.39623,4.863785 -0.56677,1.823354 -2.5138,4.77249 -0.82734,5.667872 1.32849,0.705337 2.10279,-2.176428 3.33313,-3.041676 1.5616,-1.09818 3.47256,-3.73066 5.06377,-2.675806 1.09984,0.72912 0.0872,2.695641 -0.34055,3.943946 -0.85917,2.507271 -2.58072,4.675078 -4.31808,6.676596 -1.6848,1.940962 -3.25464,4.92207 -5.82135,5.056021 -1.15723,0.06042 -2.29771,-0.973813 -2.84789,-1.993676 -0.9623,-1.783847 -0.32709,-4.056721 -0.17931,-6.078182 0.39039,-5.339824 1.52336,-10.616901 2.80396,-15.815572 1.17591,-4.773718 2.42094,-9.585833 4.46536,-14.057024 1.02524,-2.242246 1.54938,-5.464308 3.86695,-6.305557 0.20818,-0.07556 0.42777,-0.113105 0.65267,-0.118856 z m -49.5763,12.65349 c 0.05259,0.0021 0.108479,0.01177 0.167431,0.02842 1.886493,0.533191 3.016454,3.41421 4.597651,5.16351 1.073187,1.187297 3.345125,5.913213 5.256012,9.619052 1.54468,2.995623 2.056363,4.282069 1.758548,4.568195 -0.393888,0.378462 -1.992435,-1.108485 -3.28662,-3.364651 -1.383723,-2.412272 -2.512081,-5.849437 -3.845245,-7.677568 -2.471338,-3.388873 0.05965,2.160313 0.161232,2.468065 1.09226,3.308803 3.03141,6.746103 4.697388,9.682096 1.147847,2.022886 0.466312,2.283566 1.756998,3.340884 1.817814,1.489133 2.673307,1.269029 3.475757,3.32486 0.863139,2.21131 -2.175711,1.056338 -4.118094,-0.379823 C 91.76139,61.175322 90.111567,57.873975 88.669107,55.489116 86.480365,51.870389 83.840418,48.217144 82.842074,43.930132 82.434071,42.178093 81.071705,35.488601 82.70203,35.556998 Z m 8.442378,3.958932 c 2.204543,0.06451 8.102446,7.038318 9.145692,8.342127 5.2766,6.594488 4.9666,7.598145 9.74153,15.869832 1.15022,1.99253 3.01017,4.998323 3.67419,7.260537 0.34164,1.163884 0.55148,2.658727 0.14883,3.02359 -0.95933,0.869317 -4.36883,-2.099427 -6.03684,-3.657142 -2.73427,-2.553468 -6.08361,-7.103116 -3.72329,-6.491592 1.14785,0.297394 3.48617,3.960503 3.28714,1.359606 -0.25907,-3.385584 -4.30448,-5.399225 -6.35982,-8.482687 -2.143368,-3.215539 -4.659859,-11.326077 -6.155694,-10.339419 -0.277749,1.463807 3.510211,10.104594 2.72438,10.465509 -0.653878,0.300318 -7.327995,-11.818662 -7.277074,-16.136482 0.01032,-0.875583 0.322213,-1.228765 0.830956,-1.213879 z m 53.238612,11.472169 c 0.23625,0.0045 0.46773,0.03259 0.68213,0.0832 1.75544,0.414277 3.22407,1.926754 4.14548,3.477308 1.31355,2.210458 1.49935,4.989647 1.52911,7.560778 0.0245,2.114724 -0.4504,4.237773 -1.11311,6.24613 -0.71027,2.152464 -1.47755,4.434001 -3.02514,6.090068 -1.11981,1.198311 -2.76973,1.773414 -4.24884,2.482019 -1.71518,0.821692 -3.78855,0.921432 -5.32991,2.035535 -1.72013,1.243332 -2.1251,3.985529 -4.02301,4.935616 -1.19947,0.600464 -2.99752,1.034145 -4.02042,0.166397 -1.34874,-1.14417 -0.59419,-3.49848 -0.64803,-5.266344 -0.0735,-2.416098 -0.17954,-4.903573 0.44649,-7.238319 0.47674,-1.778024 1.74979,-3.245234 2.4629,-4.942332 1.17331,-2.792318 0.74242,-6.536413 2.97191,-8.586558 0.59185,-0.544261 1.69478,-1.078478 2.33784,-0.595828 0.68593,0.514842 0.10215,1.714428 0.0863,2.571935 -0.0479,2.584397 0.20966,5.26392 -0.54725,7.735446 -0.71608,2.33816 -4.66672,4.120015 -3.66903,6.352585 0.17452,0.390519 0.8521,0.404582 1.25574,0.263032 1.94361,-0.681579 2.28511,-3.529824 3.93206,-4.766635 1.48205,-1.112975 3.49671,-1.281366 5.10563,-2.201415 1.03031,-0.589185 2.39049,-1.018948 2.87321,-2.103231 0.6175,-1.387012 0.0343,-3.096147 -0.46044,-4.531506 -0.61318,-1.778807 -2.5682,-2.945632 -3.01067,-4.774387 -0.33806,-1.397241 -0.56153,-3.208129 0.37776,-4.296379 0.4318,-0.500269 1.17999,-0.709141 1.88877,-0.697113 z m -85.356546,6.486943 c 0,0.344911 0.687789,0.01265 1.019058,0.03824 4.288732,0.331126 8.115501,2.854992 12.186854,4.243152 4.793387,0.674105 5.329555,0.903039 7.02541,4.945433 1.674447,3.991364 3.703584,5.303557 -1.203545,3.67988 -1.299199,-0.392118 -2.80366,0.29404 -4.066418,-0.203089 -2.447677,-0.963617 -3.706355,-3.860969 -6.034773,-5.08496 -1.917007,-1.007716 -5.099862,-3.543888 -6.265767,-1.71876 -1.256364,1.966722 3.464041,3.265823 4.519104,5.347478 0.558258,1.101441 1.859455,2.865011 0.868164,3.601331 -2.029857,1.507751 -4.683003,-2.123099 -6.546371,-3.832326 -2.419667,-2.219507 -5.540684,-4.760793 -5.690092,-8.040851 -0.03891,-0.854202 0.586007,-1.727774 1.285193,-2.220021 0.815051,-0.573818 1.868461,-0.747467 2.903183,-0.755507 z m -17.048573,3.563606 c 2.166734,-0.0045 4.377656,1.018646 6.114873,1.748214 3.801247,1.596382 7.282958,3.966919 10.477912,6.572723 1.143725,0.932812 3.788635,1.918068 3.058729,3.200839 -1.370623,2.408799 -5.557327,-0.768723 -8.101832,-1.867069 -3.172415,-1.369388 -5.689838,-7.581908 -8.622213,-5.754172 -0.976421,0.608598 0,2.365251 0.455271,3.421497 0.956337,2.214105 3.4318,3.484202 4.567161,5.612061 0.900798,1.688248 0.07283,4.452107 1.681036,5.48907 2.709484,1.74708 6.394756,-1.648484 9.59218,-1.236099 1.405435,0.181268 3.530801,0.238802 3.940844,1.595252 0.702813,2.324973 -1.926757,4.950346 -4.108278,6.018236 -2.885575,1.412529 -6.520836,0.255257 -9.620083,-0.591177 -2.944103,-0.804053 -6.456622,-1.6262 -8.155575,-4.161504 -1.277493,-1.906371 0.353984,-4.757841 -0.562755,-6.861596 -0.748096,-1.716754 -2.860154,-2.522172 -3.7884,-4.148584 -1.094515,-1.917743 -2.697914,-4.260043 -1.939933,-6.33398 0.556374,-1.52232 2.484107,-2.391833 4.086572,-2.634982 0.3062,-0.04646 0.614958,-0.06808 0.924491,-0.06873 z m 57.603202,4.558377 c 2.445237,3.917437 2.652337,9.649698 5.192967,13.496851 2.63954,3.767558 7.17454,7.607585 7.93646,4.533056 0.14659,-0.591461 -0.61398,-1.907842 -1.05678,-2.769339 -2.25019,-4.377716 -4.17562,-4.9159 -5.98361,-7.578867 -4.53523,-6.679944 4.44908,1.584441 6.88175,6.048727 1.76997,3.248183 3.53977,6.496446 5.30975,9.744625 4.32983,7.945902 -8.59421,3.239407 -12.2685,-3.803386 -1.53773,-2.947458 -3.07492,-5.894906 -4.61264,-8.842353 C 98.756589,72.16361 98.899113,65.714111 99.581103,65.597025 Z m -73.18623,6.372222 c 3.464305,0.0649 1.990038,2.344042 3.40031,5.355228 0.970835,2.072912 2.651344,8.279452 4.155818,10.004557 2.591557,2.971638 5.739815,5.537665 9.162748,7.498249 6.206326,3.554849 9.360215,6.887169 14.422374,8.818579 4.985647,1.90222 1.043996,1.96208 -2.521291,1.38545 -2.151126,-0.34791 -3.166308,-1.61216 -5.343342,-1.51774 -1.791526,0.0777 -2.847081,1.95085 -4.694288,1.74512 -1.468898,-0.1636 -3.788881,0.29331 -4.490167,-1.00769 -1.152721,-2.13849 1.189429,-4.07276 0.635106,-6.44354 -0.457669,-1.95745 -5.619057,0.75362 -6.300391,1.82211 -0.973743,1.52705 -1.854184,2.99385 -4.058668,1.81695 -2.421176,-1.29257 -7.179126,-1.26379 -7.07192,-3.96669 0.222143,-5.600629 7.814401,-3.265967 11.539864,-4.70462 2.786594,-2.494738 -4.464119,-4.05466 -7.391281,-3.777546 -1.842822,0.174458 -3.853327,-0.56052 -5.605341,0.152445 -1.518817,0.618061 -2.855629,1.629849 -4.668966,1.237652 -1.832608,-0.396359 -4.11588,-1.757863 -4.706689,-2.950208 -1.212317,-2.446673 7.40615,-2.697474 7.330818,-3.615801 -0.104638,-1.27559 -5.95555,-2.132385 -8.092012,-3.733104 -1.604486,-1.202142 1.69788,-2.574779 2.387451,-3.739308 1.514251,-2.557201 3.5718,0.150542 5.282365,1.080555 2.225755,1.21012 4.117261,3.047175 6.619751,3.731038 1.420466,0.388175 3.148637,1.154081 2.476852,-0.917773 -0.52519,-1.61974 -2.219881,-2.724825 -3.47214,-3.918625 -1.402219,-1.336744 -6.012913,-1.88831 -4.266923,-3.353282 0.837953,-0.703077 2.616716,-0.877128 4.508768,-0.984953 0.277167,-0.0158 0.530241,-0.02138 0.761194,-0.01707 z m 54.234933,2.280997 c 1.214506,-0.02389 2.406282,0.531802 3.224609,1.633492 2.330336,3.137273 -3.883157,1.926934 -4.993494,1.548226 -0.655686,-0.223639 -2.005973,-0.781119 -1.591633,-1.336353 0.90878,-1.217805 2.146009,-1.821471 3.360518,-1.845365 z m -0.969968,5.152657 c 1.234059,0.04031 2.812748,0.468281 3.877283,0.644406 2.129203,0.352272 2.942977,-0.02774 3.897953,1.741495 0.824294,1.527128 5.239099,5.844305 1.203545,3.768244 -1.689148,-0.904756 -3.421013,-1.728126 -5.152142,-2.549713 -1.882748,-0.89354 -6.066591,-0.537416 -5.691642,-2.58744 0.15099,-0.825531 0.905171,-1.048348 1.865003,-1.016992 z m -9.752894,1.661914 c 0.02209,0.0046 0.03566,0.01749 0.03566,0.04392 1.583555,0.09282 2.026066,3.127877 3.09852,4.539257 1.122984,1.477897 1.677696,3.670443 3.36982,4.433322 3.010083,1.357074 6.721875,0.238408 9.878465,-0.730187 5.138431,-1.576715 6.655713,0.130807 9.135877,2.942971 5.078544,5.758382 -13.916527,4.672542 -17.240292,4.414202 -3.572788,-0.29378 -8.756118,-0.21594 -10.164754,-3.512446 -0.72,-1.684941 2.405523,-3.166639 2.293919,-4.995561 -0.07299,-1.196184 -1.728103,-1.872414 -1.886707,-3.060279 -0.184388,-1.380938 -0.187463,-3.757713 1.182873,-4.009057 0.08718,-0.01598 0.230383,-0.07979 0.296621,-0.06615 z"
      fill="#fff"
      stroke="none" />
</svg>
