<?xml version="1.0" encoding="UTF-8" standalone="no"?>
<svg
   xmlns="http://www.w3.org/2000/svg"
   width="52.916668"
   height="52.916668"
   version="1.1">
   <path
      fill="#fff"
      d="M 0,0 V 52.916667 H 52.916667 V 0 Z M 2.823782,2.3799267 H 50.092885 V 50.53674 H 2.823782 Z m 8.562335,2.8549477 c -1.6428704,0 -2.9735441,0.4763294 -3.9915621,1.429008 C 6.3765366,7.6106417 5.8674976,9.0159798 5.8674976,10.879915 v 2.148113 c 0,1.822513 0.512417,3.192372 1.5374559,4.109547 1.025039,0.91717 2.3590904,1.375546 4.0019615,1.375546 1.64989,0 2.980564,-0.458376 3.991562,-1.375546 1.010997,-0.917175 1.516138,-2.287034 1.516138,-4.109547 v -2.148113 c 0,-1.8639352 -0.509039,-3.2692733 -1.527057,-4.2160326 -1.018018,-0.9526786 -2.35155,-1.429008 -4.001441,-1.429008 z m 29.420679,0.089833 c -1.642867,0 -2.973025,0.4763297 -3.991041,1.4290077 -1.018016,0.9467594 -1.527059,2.3525359 -1.527059,4.2164709 v 2.147675 c 0,1.822514 0.512419,3.192378 1.537457,4.109547 1.025033,0.917176 2.359086,1.375985 4.00196,1.375985 1.649892,0 2.980045,-0.458809 3.991042,-1.375985 1.010999,-0.917169 1.516657,-2.287033 1.516657,-4.109547 v -2.147675 c 0,-1.863935 -0.509034,-3.2697115 -1.527056,-4.2164709 -1.018013,-0.952678 -2.352063,-1.4290077 -4.00196,-1.4290077 z M 21.191623,5.5026219 V 18.425917 h 3.107148 V 14.71558 l 1.221334,-1.287027 2.801424,4.997364 h 3.665043 L 27.521344,11.183157 31.91274,5.5026219 H 28.131751 L 25.277814,9.736183 24.298771,11.120931 V 5.5026219 Z m -9.805506,1.9158606 c 0.793352,0 1.396715,0.2663042 1.810943,0.7988594 0.414229,0.5325498 0.621326,1.414254 0.621326,2.6450441 v 2.227868 c -0.007,1.147948 -0.214118,1.976218 -0.621326,2.485097 -0.407207,0.508885 -1.003815,0.763365 -1.790145,0.763365 -0.793353,0 -1.400613,-0.257331 -1.8218625,-0.772129 C 9.170825,15.04587 8.9637269,14.199646 8.9637269,13.028028 V 10.791396 C 8.970749,9.5901944 9.177846,8.7292947 9.5850525,8.2085778 9.999281,7.6819413 10.599786,7.4184825 11.386117,7.4184825 Z m 29.420679,0.089833 c 0.793356,0 1.397235,0.2663044 1.811462,0.7988596 0.414229,0.5325496 0.621326,1.414259 0.621326,2.6450449 v 2.227867 c -0.007,1.147943 -0.214119,1.976213 -0.621326,2.485097 -0.407205,0.508885 -1.003811,0.763365 -1.790145,0.763365 -0.793355,0 -1.400616,-0.257325 -1.821862,-0.772129 -0.414229,-0.520717 -0.621324,-1.366946 -0.621324,-2.538559 V 10.88123 c 0.007,-1.2012024 0.214114,-2.0621016 0.621324,-2.582819 C 39.42048,7.7717748 40.02047,7.5083157 40.806796,7.5083155 Z M 26.022365,19.864127 c -1.642874,0 -2.973542,0.47633 -3.991562,1.429008 -1.018015,0.946759 -1.527057,2.352096 -1.527057,4.216032 v 2.148112 c 0,1.822514 0.512418,3.192373 1.537456,4.109548 1.025043,0.917171 2.359093,1.375548 4.001961,1.375548 1.649888,0 2.980565,-0.458377 3.991562,-1.375548 1.010996,-0.917175 1.516658,-2.287034 1.516658,-4.109548 v -2.148112 c 0,-1.863936 -0.509043,-3.269273 -1.527056,-4.216032 -1.018019,-0.952678 -2.352072,-1.429008 -4.001962,-1.429008 z M 6.665082,20.041603 v 12.923295 h 3.1066282 v -3.710337 l 1.2218538,-1.287028 2.801425,4.997365 h 3.664521 l -4.465225,-7.24276 4.391914,-5.680535 h -3.780987 l -2.853939,4.234 -0.9795628,1.38431 v -5.61831 z m 28.770757,0 v 12.923295 h 3.106626 v -8.476326 l 4.528659,8.476326 h 3.096228 V 20.041603 h -3.096228 v 8.485526 l -4.528659,-8.485526 z m -9.413474,2.006132 c 0.793349,0 1.397234,0.266305 1.811463,0.798858 0.414229,0.532552 0.621326,1.413816 0.621324,2.644607 v 2.227868 c -0.007,1.147947 -0.21412,1.976657 -0.621324,2.485535 -0.407204,0.508886 -1.004335,0.763365 -1.790665,0.763365 -0.793349,0 -1.400611,-0.257767 -1.821862,-0.772567 -0.414228,-0.520719 -0.621326,-1.366502 -0.621326,-2.538122 v -2.237068 c 0.007,-1.201201 0.21412,-2.062101 0.621326,-2.582819 0.414228,-0.526636 1.014731,-0.789657 1.801064,-0.789657 z M 11.382998,34.403109 c -1.6428703,0 -2.9730247,0.476335 -3.9910429,1.429007 -1.018018,0.946759 -1.5270573,2.352098 -1.5270573,4.216032 v 2.148113 c 0,1.822513 0.512417,3.192372 1.5374562,4.109548 1.0250382,0.91717 2.3590901,1.375984 4.001961,1.375984 1.649891,0 2.980045,-0.458814 3.991042,-1.375984 1.010997,-0.917176 1.516659,-2.287035 1.516659,-4.109548 v -2.148113 c 0,-1.863934 -0.509039,-3.269273 -1.527057,-4.216032 -1.018019,-0.952672 -2.35207,-1.429007 -4.001961,-1.429007 z m 9.156103,0.177475 v 12.923295 h 3.106629 v -8.476324 l 4.528135,8.476324 h 3.096231 V 34.580584 h -3.096231 v 8.485529 L 23.64573,34.580584 Z m 18.856582,0 -4.791744,12.923295 h 3.286006 l 0.820983,-2.644608 h 4.223454 l 0.820978,2.644608 h 3.29641 L 42.228826,34.580584 Z m -28.012685,2.006132 c 0.793352,0 1.397235,0.266305 1.811462,0.798861 0.414228,0.532548 0.621326,1.414254 0.621326,2.645043 v 2.227868 c -0.007,1.147948 -0.214119,1.976213 -0.621326,2.485096 -0.407207,0.508879 -1.003814,0.763366 -1.790145,0.763366 -0.793352,0 -1.400613,-0.257332 -1.8218621,-0.772129 -0.4142282,-0.520718 -0.6213258,-1.36694 -0.6213258,-2.53856 v -2.236632 c 0.00702,-1.2012 0.2141186,-2.062101 0.6213258,-2.58282 0.4142283,-0.526635 1.0142141,-0.790093 1.8005451,-0.790093 z m 29.434196,1.482468 1.442829,4.615243 h -2.874738 z" />
</svg>
